solid Created by Gmsh
facet normal -0.998829 0.0483748 5.00583e-16
  outer loop
    vertex -149.8761272794302 12.54218767679884 1
    vertex -150.386701539731 2 0
    vertex -150.386701539731 1.99999999999999 1
  endloop
endfacet
facet normal -0.998829 0.0483748 -2.51231e-14
  outer loop
    vertex -149.8761272794302 12.54218767679891 0
    vertex -150.386701539731 2 0
    vertex -149.8761272794302 12.54218767679884 1
  endloop
endfacet
facet normal -0.0483748 0.998829 0
  outer loop
    vertex -2 150.386701539731 0
    vertex -12.54218767679896 149.8761272794302 1
    vertex -2 150.386701539731 1
  endloop
endfacet
facet normal -0.0483748 0.998829 -3.99528e-17
  outer loop
    vertex -2 150.386701539731 0
    vertex -12.54218767679896 149.8761272794302 0
    vertex -12.54218767679896 149.8761272794302 1
  endloop
endfacet
facet normal -0.992977 0.118307 -2.02362e-14
  outer loop
    vertex -148.627452057887 23.02260834007549 1
    vertex -148.627452057887 23.02260834007556 0
    vertex -149.8761272794302 12.54218767679884 1
  endloop
endfacet
facet normal -0.992977 0.118307 -2.03038e-14
  outer loop
    vertex -148.627452057887 23.02260834007556 0
    vertex -149.8761272794302 12.54218767679891 0
    vertex -149.8761272794302 12.54218767679884 1
  endloop
endfacet
facet normal -0.982235 0.187656 0
  outer loop
    vertex -146.6468252759296 33.3896486428199 1
    vertex -146.6468252759296 33.3896486428199 0
    vertex -148.627452057887 23.02260834007549 1
  endloop
endfacet
facet normal -0.982235 0.187656 -1.52126e-14
  outer loop
    vertex -146.6468252759296 33.3896486428199 0
    vertex -148.627452057887 23.02260834007556 0
    vertex -148.627452057887 23.02260834007549 1
  endloop
endfacet
facet normal -0.966655 0.256082 -5.31719e-17
  outer loop
    vertex -143.9440010055253 43.59225360682028 1
    vertex -146.6468252759296 33.3896486428199 0
    vertex -146.6468252759296 33.3896486428199 1
  endloop
endfacet
facet normal -0.946315 0.323246 2.06712e-14
  outer loop
    vertex -140.5322899535107 53.58017805515763 0
    vertex -143.9440010055253 43.59225360682028 1
    vertex -140.5322899535107 53.58017805515757 1
  endloop
endfacet
facet normal -0.966655 0.256082 1.81957e-14
  outer loop
    vertex -143.9440010055253 43.59225360682028 1
    vertex -143.9440010055253 43.59225360682035 0
    vertex -146.6468252759296 33.3896486428199 0
  endloop
endfacet
facet normal -0.946315 0.323246 2.30172e-14
  outer loop
    vertex -140.5322899535107 53.58017805515763 0
    vertex -143.9440010055253 43.59225360682035 0
    vertex -143.9440010055253 43.59225360682028 1
  endloop
endfacet
facet normal -0.921315 0.388818 2.50405e-14
  outer loop
    vertex -136.428493909822 63.30423405663847 1
    vertex -140.5322899535107 53.58017805515763 0
    vertex -140.5322899535107 53.58017805515757 1
  endloop
endfacet
facet normal -0.891777 0.452475 -2.49714e-14
  outer loop
    vertex -131.6528230030471 72.7165331635685 1
    vertex -131.652823003047 72.71653316356856 0
    vertex -136.428493909822 63.30423405663847 1
  endloop
endfacet
facet normal -0.921315 0.388818 2.48645e-14
  outer loop
    vertex -136.428493909822 63.30423405663847 1
    vertex -136.428493909822 63.30423405663853 0
    vertex -140.5322899535107 53.58017805515763 0
  endloop
endfacet
facet normal -0.891777 0.452475 2.89546e-14
  outer loop
    vertex -131.652823003047 72.71653316356856 0
    vertex -136.428493909822 63.30423405663853 0
    vertex -136.428493909822 63.30423405663847 1
  endloop
endfacet
facet normal -0.857847 0.513904 -1.95972e-14
  outer loop
    vertex -126.228796170797 81.77072224990665 1
    vertex -131.652823003047 72.71653316356856 0
    vertex -131.6528230030471 72.7165331635685 1
  endloop
endfacet
facet normal -0.819693 0.572803 -1.05256e-14
  outer loop
    vertex -120.1831253350528 90.42221178835973 1
    vertex -120.1831253350528 90.42221178835977 0
    vertex -126.228796170797 81.77072224990665 1
  endloop
endfacet
facet normal -0.857847 0.513904 0
  outer loop
    vertex -126.228796170797 81.77072224990665 1
    vertex -126.228796170797 81.77072224990665 0
    vertex -131.652823003047 72.71653316356856 0
  endloop
endfacet
facet normal -0.819693 0.572803 -1.17155e-16
  outer loop
    vertex -120.1831253350528 90.42221178835977 0
    vertex -126.228796170797 81.77072224990665 0
    vertex -126.228796170797 81.77072224990665 1
  endloop
endfacet
facet normal -0.777502 0.62888 -8.44821e-15
  outer loop
    vertex -113.5455838528942 98.62839544221217 0
    vertex -120.1831253350528 90.42221178835973 1
    vertex -113.5455838528942 98.62839544221211 1
  endloop
endfacet
facet normal -0.777502 0.62888 -6.57571e-15
  outer loop
    vertex -113.5455838528942 98.62839544221217 0
    vertex -120.1831253350528 90.42221178835977 0
    vertex -120.1831253350528 90.42221178835973 1
  endloop
endfacet
facet normal -0.731482 0.68186 0
  outer loop
    vertex -106.3488598904567 106.3488598904568 0
    vertex -113.5455838528942 98.62839544221211 1
    vertex -106.3488598904567 106.3488598904568 1
  endloop
endfacet
facet normal -0.731482 0.68186 -2.82545e-15
  outer loop
    vertex -106.3488598904567 106.3488598904568 0
    vertex -113.5455838528942 98.62839544221217 0
    vertex -113.5455838528942 98.62839544221211 1
  endloop
endfacet
facet normal -0.68186 0.731482 -2.54018e-16
  outer loop
    vertex -98.6283954422121 113.5455838528942 1
    vertex -106.3488598904567 106.3488598904568 0
    vertex -106.3488598904567 106.3488598904568 1
  endloop
endfacet
facet normal -0.62888 0.777502 -5.20153e-15
  outer loop
    vertex -90.42221178835955 120.183125335053 0
    vertex -98.6283954422121 113.5455838528942 1
    vertex -90.42221178835966 120.1831253350529 1
  endloop
endfacet
facet normal -0.68186 0.731482 -7.57429e-15
  outer loop
    vertex -98.6283954422121 113.5455838528942 1
    vertex -98.62839544221204 113.5455838528943 0
    vertex -106.3488598904567 106.3488598904568 0
  endloop
endfacet
facet normal -0.62888 0.777502 -2.26765e-15
  outer loop
    vertex -90.42221178835955 120.183125335053 0
    vertex -98.62839544221204 113.5455838528943 0
    vertex -98.6283954422121 113.5455838528942 1
  endloop
endfacet
facet normal -0.572803 0.819693 4.83808e-15
  outer loop
    vertex -81.77072224990653 126.2287961707971 1
    vertex -90.42221178835955 120.183125335053 0
    vertex -90.42221178835966 120.1831253350529 1
  endloop
endfacet
facet normal -0.513904 0.857847 0
  outer loop
    vertex -72.71653316356831 131.6528230030472 0
    vertex -81.77072224990653 126.2287961707971 1
    vertex -72.71653316356831 131.6528230030472 1
  endloop
endfacet
facet normal -0.572803 0.819693 4.77114e-15
  outer loop
    vertex -81.77072224990653 126.2287961707971 1
    vertex -81.77072224990641 126.2287961707972 0
    vertex -90.42221178835955 120.183125335053 0
  endloop
endfacet
facet normal -0.513904 0.857847 1.47203e-14
  outer loop
    vertex -81.77072224990641 126.2287961707972 0
    vertex -81.77072224990653 126.2287961707971 1
    vertex -72.71653316356831 131.6528230030472 0
  endloop
endfacet
facet normal -0.452475 0.891777 0
  outer loop
    vertex -63.30423405663827 136.4284939098221 1
    vertex -63.30423405663827 136.4284939098221 0
    vertex -72.71653316356831 131.6528230030472 1
  endloop
endfacet
facet normal -0.452475 0.891777 -1.97587e-16
  outer loop
    vertex -63.30423405663827 136.4284939098221 0
    vertex -72.71653316356831 131.6528230030472 0
    vertex -72.71653316356831 131.6528230030472 1
  endloop
endfacet
facet normal -0.388818 0.921315 0
  outer loop
    vertex -53.58017805515749 140.5322899535108 1
    vertex -53.58017805515749 140.5322899535108 0
    vertex -63.30423405663827 136.4284939098221 1
  endloop
endfacet
facet normal -0.388818 0.921315 -2.43273e-16
  outer loop
    vertex -53.58017805515749 140.5322899535108 0
    vertex -63.30423405663827 136.4284939098221 0
    vertex -63.30423405663827 136.4284939098221 1
  endloop
endfacet
facet normal -0.323246 0.946315 -3.14299e-16
  outer loop
    vertex -43.5922536068202 143.9440010055253 1
    vertex -53.58017805515749 140.5322899535108 0
    vertex -53.58017805515749 140.5322899535108 1
  endloop
endfacet
facet normal -0.256082 0.966655 -1.1669e-16
  outer loop
    vertex -33.38964864281981 146.6468252759297 1
    vertex -43.5922536068202 143.9440010055253 0
    vertex -43.5922536068202 143.9440010055253 1
  endloop
endfacet
facet normal -0.323246 0.946315 0
  outer loop
    vertex -43.5922536068202 143.9440010055253 0
    vertex -53.58017805515749 140.5322899535108 0
    vertex -43.5922536068202 143.9440010055253 1
  endloop
endfacet
facet normal -0.187656 0.982235 0
  outer loop
    vertex -23.02260834007547 148.627452057887 0
    vertex -33.38964864281981 146.6468252759297 1
    vertex -23.02260834007547 148.627452057887 1
  endloop
endfacet
facet normal -0.256082 0.966655 0
  outer loop
    vertex -33.38964864281981 146.6468252759297 1
    vertex -33.38964864281981 146.6468252759297 0
    vertex -43.5922536068202 143.9440010055253 0
  endloop
endfacet
facet normal -0.187656 0.982235 6.50749e-17
  outer loop
    vertex -23.02260834007547 148.627452057887 0
    vertex -33.38964864281981 146.6468252759297 0
    vertex -33.38964864281981 146.6468252759297 1
  endloop
endfacet
facet normal -0.118307 0.992977 5.48251e-17
  outer loop
    vertex -12.54218767679896 149.8761272794302 1
    vertex -23.02260834007547 148.627452057887 0
    vertex -23.02260834007547 148.627452057887 1
  endloop
endfacet
facet normal -0.118307 0.992977 0
  outer loop
    vertex -12.54218767679896 149.8761272794302 1
    vertex -12.54218767679896 149.8761272794302 0
    vertex -23.02260834007547 148.627452057887 0
  endloop
endfacet
facet normal -0 -1 -9.99201e-15
  outer loop
    vertex -139.7876514297502 2 0
    vertex -150.386701539731 1.99999999999999 1
    vertex -150.386701539731 2 0
  endloop
endfacet
facet normal 9.42727e-16 -1 0
  outer loop
    vertex -139.7876514297502 2 1
    vertex -150.386701539731 1.99999999999999 1
    vertex -139.7876514297502 2 0
  endloop
endfacet
facet normal 0 -1 -9.99201e-15
  outer loop
    vertex -1.99999999999999 1.99999999999999 1
    vertex -12.59905010998079 2 0
    vertex -1.99999999999999 2 0
  endloop
endfacet
facet normal -9.42727e-16 -1 -5.20993e-31
  outer loop
    vertex -1.99999999999999 1.99999999999999 1
    vertex -12.59905010998079 2 1
    vertex -12.59905010998079 2 0
  endloop
endfacet
facet normal 0 -1 0
  outer loop
    vertex -12.59905010998079 2 0
    vertex -23.19810021996156 2 1
    vertex -23.19810021996156 2 0
  endloop
endfacet
facet normal -0 -1 -0
  outer loop
    vertex -12.59905010998079 2 1
    vertex -23.19810021996156 2 1
    vertex -12.59905010998079 2 0
  endloop
endfacet
facet normal 0 -1 -0
  outer loop
    vertex -23.19810021996156 2 1
    vertex -33.79715032994235 2 0
    vertex -23.19810021996156 2 0
  endloop
endfacet
facet normal 0 -1 0
  outer loop
    vertex -44.39620043992315 2 1
    vertex -44.39620043992315 2 0
    vertex -33.79715032994235 2 0
  endloop
endfacet
facet normal 0 -1 0
  outer loop
    vertex -33.79715032994235 2 0
    vertex -23.19810021996156 2 1
    vertex -33.79715032994235 2 1
  endloop
endfacet
facet normal 0 -1 0
  outer loop
    vertex -44.39620043992315 2 1
    vertex -33.79715032994235 2 0
    vertex -33.79715032994235 2 1
  endloop
endfacet
facet normal 0 -1 -0
  outer loop
    vertex -44.39620043992315 2 1
    vertex -54.99525054990394 2 0
    vertex -44.39620043992315 2 0
  endloop
endfacet
facet normal 0 -1 0
  outer loop
    vertex -54.99525054990394 2 0
    vertex -65.59430065988477 2 1
    vertex -65.59430065988477 2 0
  endloop
endfacet
facet normal -0 -1 0
  outer loop
    vertex -44.39620043992315 2 1
    vertex -54.99525054990394 2 1
    vertex -54.99525054990394 2 0
  endloop
endfacet
facet normal -0 -1 -0
  outer loop
    vertex -54.99525054990394 2 1
    vertex -65.59430065988477 2 1
    vertex -54.99525054990394 2 0
  endloop
endfacet
facet normal 0 -1 -0
  outer loop
    vertex -65.59430065988477 2 1
    vertex -76.19335076986557 2 0
    vertex -65.59430065988477 2 0
  endloop
endfacet
facet normal 0 -1 -0
  outer loop
    vertex -76.19335076986557 2 1
    vertex -86.79240087984638 2 0
    vertex -76.19335076986557 2 0
  endloop
endfacet
facet normal -0 -1 0
  outer loop
    vertex -65.59430065988477 2 1
    vertex -76.19335076986557 2 1
    vertex -76.19335076986557 2 0
  endloop
endfacet
facet normal 0 -1 -0
  outer loop
    vertex -86.79240087984638 2 1
    vertex -97.39145098982715 2 0
    vertex -86.79240087984638 2 0
  endloop
endfacet
facet normal -0 -1 0
  outer loop
    vertex -76.19335076986557 2 1
    vertex -86.79240087984638 2 1
    vertex -86.79240087984638 2 0
  endloop
endfacet
facet normal 0 -1 -0
  outer loop
    vertex -97.39145098982715 2 1
    vertex -107.9905010998079 2 0
    vertex -97.39145098982715 2 0
  endloop
endfacet
facet normal -0 -1 0
  outer loop
    vertex -86.79240087984638 2 1
    vertex -97.39145098982715 2 1
    vertex -97.39145098982715 2 0
  endloop
endfacet
facet normal 0 -1 -0
  outer loop
    vertex -107.9905010998079 2 1
    vertex -118.5895512097887 2 0
    vertex -107.9905010998079 2 0
  endloop
endfacet
facet normal -0 -1 0
  outer loop
    vertex -97.39145098982715 2 1
    vertex -107.9905010998079 2 1
    vertex -107.9905010998079 2 0
  endloop
endfacet
facet normal 0 -1 0
  outer loop
    vertex -129.1886013197695 2 1
    vertex -129.1886013197695 2 0
    vertex -118.5895512097887 2 0
  endloop
endfacet
facet normal -0 -1 0
  outer loop
    vertex -107.9905010998079 2 1
    vertex -118.5895512097887 2 1
    vertex -118.5895512097887 2 0
  endloop
endfacet
facet normal 0 -1 0
  outer loop
    vertex -129.1886013197695 2 1
    vertex -118.5895512097887 2 0
    vertex -118.5895512097887 2 1
  endloop
endfacet
facet normal 0 -1 -0
  outer loop
    vertex -129.1886013197695 2 1
    vertex -139.7876514297502 2 0
    vertex -129.1886013197695 2 0
  endloop
endfacet
facet normal -0 -1 0
  outer loop
    vertex -129.1886013197695 2 1
    vertex -139.7876514297502 2 1
    vertex -139.7876514297502 2 0
  endloop
endfacet
facet normal 1 3.14242e-16 0
  outer loop
    vertex -2 150.386701539731 1
    vertex -1.999999999999997 139.7876514297502 1
    vertex -2 150.386701539731 0
  endloop
endfacet
facet normal 1 3.14242e-16 0
  outer loop
    vertex -2 150.386701539731 0
    vertex -1.999999999999997 139.7876514297502 1
    vertex -1.999999999999997 139.7876514297502 0
  endloop
endfacet
facet normal 1 4.1899e-17 4.18655e-31
  outer loop
    vertex -1.99999999999999 2 0
    vertex -1.99999999999999 12.59905010998076 1
    vertex -1.99999999999999 1.99999999999999 1
  endloop
endfacet
facet normal 1 4.1899e-17 2.9771e-31
  outer loop
    vertex -1.99999999999999 12.59905010998076 1
    vertex -1.99999999999999 2 0
    vertex -1.99999999999999 12.59905010998077 0
  endloop
endfacet
facet normal 1 6.28484e-17 0
  outer loop
    vertex -1.999999999999997 139.7876514297502 1
    vertex -1.999999999999996 129.1886013197694 0
    vertex -1.999999999999997 139.7876514297502 0
  endloop
endfacet
facet normal 1 4.1899e-17 0
  outer loop
    vertex -1.999999999999996 129.1886013197694 1
    vertex -1.999999999999996 118.5895512097887 0
    vertex -1.999999999999996 129.1886013197694 0
  endloop
endfacet
facet normal 1 6.28484e-17 0
  outer loop
    vertex -1.999999999999997 139.7876514297502 1
    vertex -1.999999999999996 129.1886013197694 1
    vertex -1.999999999999996 129.1886013197694 0
  endloop
endfacet
facet normal 1 4.1899e-17 0
  outer loop
    vertex -1.999999999999995 107.9905010998079 1
    vertex -1.999999999999995 107.9905010998079 0
    vertex -1.999999999999996 118.5895512097887 0
  endloop
endfacet
facet normal 1 4.1899e-17 -0
  outer loop
    vertex -1.999999999999996 118.5895512097887 0
    vertex -1.999999999999996 129.1886013197694 1
    vertex -1.999999999999996 118.5895512097887 1
  endloop
endfacet
facet normal 1 4.1899e-17 0
  outer loop
    vertex -1.999999999999995 107.9905010998079 1
    vertex -1.999999999999996 118.5895512097887 0
    vertex -1.999999999999996 118.5895512097887 1
  endloop
endfacet
facet normal 1 4.1899e-17 0
  outer loop
    vertex -1.999999999999995 107.9905010998079 1
    vertex -1.999999999999995 97.39145098982706 0
    vertex -1.999999999999995 107.9905010998079 0
  endloop
endfacet
facet normal 1 6.28484e-17 0
  outer loop
    vertex -1.999999999999995 97.39145098982706 1
    vertex -1.999999999999994 86.79240087984624 0
    vertex -1.999999999999995 97.39145098982706 0
  endloop
endfacet
facet normal 1 4.1899e-17 0
  outer loop
    vertex -1.999999999999995 107.9905010998079 1
    vertex -1.999999999999995 97.39145098982706 1
    vertex -1.999999999999995 97.39145098982706 0
  endloop
endfacet
facet normal 1 4.1899e-17 0
  outer loop
    vertex -1.999999999999994 86.79240087984624 1
    vertex -1.999999999999994 76.19335076986543 0
    vertex -1.999999999999994 86.79240087984624 0
  endloop
endfacet
facet normal 1 6.28484e-17 0
  outer loop
    vertex -1.999999999999995 97.39145098982706 1
    vertex -1.999999999999994 86.79240087984624 1
    vertex -1.999999999999994 86.79240087984624 0
  endloop
endfacet
facet normal 1 4.1899e-17 0
  outer loop
    vertex -1.999999999999994 76.19335076986543 1
    vertex -1.999999999999993 65.59430065988462 0
    vertex -1.999999999999994 76.19335076986543 0
  endloop
endfacet
facet normal 1 4.1899e-17 0
  outer loop
    vertex -1.999999999999994 86.79240087984624 1
    vertex -1.999999999999994 76.19335076986543 1
    vertex -1.999999999999994 76.19335076986543 0
  endloop
endfacet
facet normal 1 6.28484e-17 0
  outer loop
    vertex -1.999999999999993 65.59430065988462 1
    vertex -1.999999999999992 54.99525054990387 0
    vertex -1.999999999999993 65.59430065988462 0
  endloop
endfacet
facet normal 1 4.1899e-17 0
  outer loop
    vertex -1.999999999999994 76.19335076986543 1
    vertex -1.999999999999993 65.59430065988462 1
    vertex -1.999999999999993 65.59430065988462 0
  endloop
endfacet
facet normal 1 4.1899e-17 0
  outer loop
    vertex -1.999999999999992 54.99525054990387 1
    vertex -1.999999999999992 44.39620043992308 0
    vertex -1.999999999999992 54.99525054990387 0
  endloop
endfacet
facet normal 1 6.28484e-17 0
  outer loop
    vertex -1.999999999999993 65.59430065988462 1
    vertex -1.999999999999992 54.99525054990387 1
    vertex -1.999999999999992 54.99525054990387 0
  endloop
endfacet
facet normal 1 4.1899e-17 0
  outer loop
    vertex -1.999999999999992 44.39620043992308 1
    vertex -1.999999999999992 33.79715032994233 0
    vertex -1.999999999999992 44.39620043992308 0
  endloop
endfacet
facet normal 1 4.1899e-17 0
  outer loop
    vertex -1.999999999999992 54.99525054990387 1
    vertex -1.999999999999992 44.39620043992308 1
    vertex -1.999999999999992 44.39620043992308 0
  endloop
endfacet
facet normal 1 4.1899e-17 5.9542e-31
  outer loop
    vertex -1.999999999999992 33.79715032994231 1
    vertex -1.999999999999991 23.19810021996154 0
    vertex -1.999999999999992 33.79715032994233 0
  endloop
endfacet
facet normal 1 4.1899e-17 5.9542e-31
  outer loop
    vertex -1.999999999999992 44.39620043992308 1
    vertex -1.999999999999992 33.79715032994231 1
    vertex -1.999999999999992 33.79715032994233 0
  endloop
endfacet
facet normal 1 6.28484e-17 4.46565e-31
  outer loop
    vertex -1.999999999999991 23.19810021996154 1
    vertex -1.99999999999999 12.59905010998077 0
    vertex -1.999999999999991 23.19810021996154 0
  endloop
endfacet
facet normal 1 4.1899e-17 2.9771e-31
  outer loop
    vertex -1.999999999999992 33.79715032994231 1
    vertex -1.999999999999991 23.19810021996154 1
    vertex -1.999999999999991 23.19810021996154 0
  endloop
endfacet
facet normal 1 6.28484e-17 4.09351e-31
  outer loop
    vertex -1.999999999999991 23.19810021996154 1
    vertex -1.99999999999999 12.59905010998076 1
    vertex -1.99999999999999 12.59905010998077 0
  endloop
endfacet
facet normal 0.0341411 -0.999417 0
  outer loop
    vertex 0 152.4 0
    vertex 0 152.4 1
    vertex -10.40014379677584 152.0447204246382 1
  endloop
endfacet
facet normal 0.0341411 -0.999417 2.04865e-17
  outer loop
    vertex 0 152.4 0
    vertex -10.40014379677584 152.0447204246382 1
    vertex -10.40014379677584 152.0447204246382 0
  endloop
endfacet
facet normal 0.999417 -0.0341411 1.22114e-18
  outer loop
    vertex -152.0447204246382 10.40014379677584 1
    vertex -152.4 0 1
    vertex -152.4 0 0
  endloop
endfacet
facet normal 0.999417 -0.0341411 0
  outer loop
    vertex -152.0447204246382 10.40014379677584 0
    vertex -152.0447204246382 10.40014379677584 1
    vertex -152.4 0 0
  endloop
endfacet
facet normal 0.102264 -0.994757 0
  outer loop
    vertex -10.40014379677584 152.0447204246382 0
    vertex -10.40014379677584 152.0447204246382 1
    vertex -20.75179732226796 150.9805381759368 0
  endloop
endfacet
facet normal 0.16991 -0.98546 6.459e-18
  outer loop
    vertex -31.00669638922137 149.212414962786 0
    vertex -20.75179732226796 150.9805381759368 0
    vertex -20.75179732226796 150.9805381759368 1
  endloop
endfacet
facet normal 0.102264 -0.994757 -6.20183e-17
  outer loop
    vertex -10.40014379677584 152.0447204246382 1
    vertex -20.75179732226796 150.9805381759368 1
    vertex -20.75179732226796 150.9805381759368 0
  endloop
endfacet
facet normal 0.236764 -0.971567 0
  outer loop
    vertex -31.00669638922137 149.212414962786 0
    vertex -31.00669638922137 149.212414962786 1
    vertex -41.11702792433047 146.7485945918046 0
  endloop
endfacet
facet normal 0.16991 -0.98546 0
  outer loop
    vertex -31.00669638922137 149.212414962786 1
    vertex -31.00669638922137 149.212414962786 0
    vertex -20.75179732226796 150.9805381759368 1
  endloop
endfacet
facet normal 0.302515 -0.953145 1.35358e-17
  outer loop
    vertex -41.11702792433047 146.7485945918046 0
    vertex -51.03565289485826 143.6005645309083 1
    vertex -51.03565289485826 143.6005645309083 0
  endloop
endfacet
facet normal 0.236764 -0.971567 -3.58567e-17
  outer loop
    vertex -31.00669638922137 149.212414962786 1
    vertex -41.11702792433047 146.7485945918046 1
    vertex -41.11702792433047 146.7485945918046 0
  endloop
endfacet
facet normal 0.302515 -0.953145 0
  outer loop
    vertex -41.11702792433047 146.7485945918046 0
    vertex -41.11702792433047 146.7485945918046 1
    vertex -51.03565289485826 143.6005645309083 1
  endloop
endfacet
facet normal 0.366854 -0.930278 0
  outer loop
    vertex -60.71632609256717 139.7830023494311 1
    vertex -60.71632609256717 139.7830023494311 0
    vertex -51.03565289485826 143.6005645309083 0
  endloop
endfacet
facet normal 0.366854 -0.930278 1.01556e-16
  outer loop
    vertex -60.71632609256717 139.7830023494311 1
    vertex -51.03565289485826 143.6005645309083 0
    vertex -51.03565289485826 143.6005645309083 1
  endloop
endfacet
facet normal 0.429483 -0.903075 -2.52117e-16
  outer loop
    vertex -70.11391175022759 135.313707284522 0
    vertex -60.71632609256717 139.7830023494311 0
    vertex -60.71632609256717 139.7830023494311 1
  endloop
endfacet
facet normal 0.49011 -0.87166 0
  outer loop
    vertex -79.18459398540004 130.2135172528849 1
    vertex -79.18459398540004 130.2135172528849 0
    vertex -70.11391175022759 135.313707284522 0
  endloop
endfacet
facet normal 0.429483 -0.903075 0
  outer loop
    vertex -70.11391175022759 135.313707284522 1
    vertex -70.11391175022759 135.313707284522 0
    vertex -60.71632609256717 139.7830023494311 1
  endloop
endfacet
facet normal 0.49011 -0.87166 1.47768e-16
  outer loop
    vertex -79.18459398540004 130.2135172528849 1
    vertex -70.11391175022759 135.313707284522 0
    vertex -70.11391175022759 135.313707284522 1
  endloop
endfacet
facet normal 0.548452 -0.836182 -2.99255e-16
  outer loop
    vertex -79.18459398540004 130.2135172528849 0
    vertex -87.88608109030575 124.5062116947914 1
    vertex -87.88608109030575 124.5062116947914 0
  endloop
endfacet
facet normal 0.548452 -0.836182 0
  outer loop
    vertex -79.18459398540004 130.2135172528849 1
    vertex -87.88608109030575 124.5062116947914 1
    vertex -79.18459398540004 130.2135172528849 0
  endloop
endfacet
facet normal 0.604236 -0.796805 -1.4036e-16
  outer loop
    vertex -96.17780271529045 118.2184007033536 0
    vertex -87.88608109030575 124.5062116947914 0
    vertex -87.88608109030575 124.5062116947914 1
  endloop
endfacet
facet normal 0.657204 -0.753713 0
  outer loop
    vertex -104.0210990265229 111.3794009559861 1
    vertex -104.0210990265229 111.3794009559861 0
    vertex -96.17780271529045 118.2184007033536 0
  endloop
endfacet
facet normal 0.604236 -0.796805 0
  outer loop
    vertex -96.17780271529045 118.2184007033536 1
    vertex -96.17780271529045 118.2184007033536 0
    vertex -87.88608109030575 124.5062116947914 1
  endloop
endfacet
facet normal 0.657204 -0.753713 9.04826e-17
  outer loop
    vertex -104.0210990265229 111.3794009559861 1
    vertex -96.17780271529045 118.2184007033536 0
    vertex -96.17780271529045 118.2184007033536 1
  endloop
endfacet
facet normal 0.707107 -0.707107 1.51784e-16
  outer loop
    vertex -104.0210990265229 111.3794009559861 0
    vertex -111.3794009559862 104.0210990265228 1
    vertex -111.3794009559862 104.0210990265228 0
  endloop
endfacet
facet normal 0.707107 -0.707107 0
  outer loop
    vertex -104.0210990265229 111.3794009559861 1
    vertex -111.3794009559862 104.0210990265228 1
    vertex -104.0210990265229 111.3794009559861 0
  endloop
endfacet
facet normal 0.753713 -0.657204 0
  outer loop
    vertex -111.3794009559862 104.0210990265228 0
    vertex -111.3794009559862 104.0210990265228 1
    vertex -118.2184007033537 96.17780271529037 0
  endloop
endfacet
facet normal 0.796805 -0.604236 0
  outer loop
    vertex -124.5062116947914 87.88608109030565 1
    vertex -124.5062116947914 87.88608109030565 0
    vertex -118.2184007033537 96.17780271529037 0
  endloop
endfacet
facet normal 0.753713 -0.657204 3.33561e-16
  outer loop
    vertex -111.3794009559862 104.0210990265228 1
    vertex -118.2184007033537 96.17780271529037 1
    vertex -118.2184007033537 96.17780271529037 0
  endloop
endfacet
facet normal 0.796805 -0.604236 2.52679e-16
  outer loop
    vertex -124.5062116947914 87.88608109030565 1
    vertex -118.2184007033537 96.17780271529037 0
    vertex -118.2184007033537 96.17780271529037 1
  endloop
endfacet
facet normal 0.836182 -0.548452 0
  outer loop
    vertex -124.5062116947914 87.88608109030565 0
    vertex -124.5062116947914 87.88608109030565 1
    vertex -130.213517252885 79.18459398539989 0
  endloop
endfacet
facet normal 0.87166 -0.49011 0
  outer loop
    vertex -130.213517252885 79.18459398539989 0
    vertex -130.213517252885 79.18459398539989 1
    vertex -135.3137072845221 70.11391175022736 0
  endloop
endfacet
facet normal 0.836182 -0.548452 -2.57318e-16
  outer loop
    vertex -124.5062116947914 87.88608109030565 1
    vertex -130.213517252885 79.18459398539989 1
    vertex -130.213517252885 79.18459398539989 0
  endloop
endfacet
facet normal 0.903075 -0.429483 -1.25114e-16
  outer loop
    vertex -139.7830023494311 60.716326092567 0
    vertex -135.3137072845221 70.11391175022736 0
    vertex -135.3137072845221 70.11391175022736 1
  endloop
endfacet
facet normal 0.87166 -0.49011 -3.40692e-16
  outer loop
    vertex -130.213517252885 79.18459398539989 1
    vertex -135.3137072845221 70.11391175022736 1
    vertex -135.3137072845221 70.11391175022736 0
  endloop
endfacet
facet normal 0.930278 -0.366854 0
  outer loop
    vertex -143.6005645309083 51.03565289485807 1
    vertex -143.6005645309083 51.03565289485807 0
    vertex -139.7830023494311 60.716326092567 0
  endloop
endfacet
facet normal 0.903075 -0.429483 0
  outer loop
    vertex -139.7830023494311 60.716326092567 1
    vertex -139.7830023494311 60.716326092567 0
    vertex -135.3137072845221 70.11391175022736 1
  endloop
endfacet
facet normal 0.930278 -0.366854 2.86084e-16
  outer loop
    vertex -143.6005645309083 51.03565289485807 1
    vertex -139.7830023494311 60.716326092567 0
    vertex -139.7830023494311 60.716326092567 1
  endloop
endfacet
facet normal 0.953145 -0.302515 4.70885e-17
  outer loop
    vertex -143.6005645309083 51.03565289485807 0
    vertex -146.7485945918047 41.11702792433037 1
    vertex -146.7485945918047 41.11702792433037 0
  endloop
endfacet
facet normal 0.953145 -0.302515 0
  outer loop
    vertex -143.6005645309083 51.03565289485807 0
    vertex -143.6005645309083 51.03565289485807 1
    vertex -146.7485945918047 41.11702792433037 1
  endloop
endfacet
facet normal 0.971567 -0.236764 0
  outer loop
    vertex -146.7485945918047 41.11702792433037 1
    vertex -149.212414962786 31.0066963892213 0
    vertex -146.7485945918047 41.11702792433037 0
  endloop
endfacet
facet normal 0.98546 -0.16991 3.61239e-17
  outer loop
    vertex -150.9805381759368 20.75179732226792 0
    vertex -149.212414962786 31.0066963892213 0
    vertex -149.212414962786 31.0066963892213 1
  endloop
endfacet
facet normal 0.971567 -0.236764 1.67788e-16
  outer loop
    vertex -146.7485945918047 41.11702792433037 1
    vertex -149.212414962786 31.0066963892213 1
    vertex -149.212414962786 31.0066963892213 0
  endloop
endfacet
facet normal 0.994757 -0.102264 -3.49987e-18
  outer loop
    vertex -150.9805381759368 20.75179732226792 0
    vertex -152.0447204246382 10.40014379677584 1
    vertex -152.0447204246382 10.40014379677584 0
  endloop
endfacet
facet normal 0.98546 -0.16991 0
  outer loop
    vertex -150.9805381759368 20.75179732226792 1
    vertex -150.9805381759368 20.75179732226792 0
    vertex -149.212414962786 31.0066963892213 1
  endloop
endfacet
facet normal 0.994757 -0.102264 0
  outer loop
    vertex -150.9805381759368 20.75179732226792 0
    vertex -150.9805381759368 20.75179732226792 1
    vertex -152.0447204246382 10.40014379677584 1
  endloop
endfacet
facet normal -1 0 0
  outer loop
    vertex 0 142.24 0
    vertex 0 152.4 1
    vertex 0 152.4 0
  endloop
endfacet
facet normal -1 0 0
  outer loop
    vertex 0 142.24 1
    vertex 0 152.4 1
    vertex 0 142.24 0
  endloop
endfacet
facet normal -1 0 0
  outer loop
    vertex 0 0 1
    vertex 0 10.15999999999999 0
    vertex 0 0 0
  endloop
endfacet
facet normal -1 0 0
  outer loop
    vertex 0 0 1
    vertex 0 10.15999999999999 1
    vertex 0 10.15999999999999 0
  endloop
endfacet
facet normal -1 0 0
  outer loop
    vertex 0 10.15999999999999 0
    vertex 0 20.31999999999997 1
    vertex 0 20.31999999999997 0
  endloop
endfacet
facet normal -1 0 0
  outer loop
    vertex 0 10.15999999999999 1
    vertex 0 20.31999999999997 1
    vertex 0 10.15999999999999 0
  endloop
endfacet
facet normal -1 0 0
  outer loop
    vertex 0 20.31999999999997 1
    vertex 0 30.47999999999997 0
    vertex 0 20.31999999999997 0
  endloop
endfacet
facet normal -1 0 0
  outer loop
    vertex 0 30.47999999999997 0
    vertex 0 30.47999999999997 1
    vertex 0 40.63999999999995 0
  endloop
endfacet
facet normal -1 0 0
  outer loop
    vertex 0 20.31999999999997 1
    vertex 0 30.47999999999997 1
    vertex 0 30.47999999999997 0
  endloop
endfacet
facet normal -1 0 -0
  outer loop
    vertex 0 50.79999999999995 1
    vertex 0 50.79999999999995 0
    vertex 0 40.63999999999995 0
  endloop
endfacet
facet normal -1 0 0
  outer loop
    vertex 0 40.63999999999995 0
    vertex 0 30.47999999999997 1
    vertex 0 40.63999999999995 1
  endloop
endfacet
facet normal -1 -0 0
  outer loop
    vertex 0 50.79999999999995 1
    vertex 0 40.63999999999995 0
    vertex 0 40.63999999999995 1
  endloop
endfacet
facet normal -1 0 0
  outer loop
    vertex 0 50.79999999999995 1
    vertex 0 60.95999999999996 0
    vertex 0 50.79999999999995 0
  endloop
endfacet
facet normal -1 0 0
  outer loop
    vertex 0 60.95999999999996 1
    vertex 0 71.11999999999996 0
    vertex 0 60.95999999999996 0
  endloop
endfacet
facet normal -1 0 0
  outer loop
    vertex 0 50.79999999999995 1
    vertex 0 60.95999999999996 1
    vertex 0 60.95999999999996 0
  endloop
endfacet
facet normal -1 0 0
  outer loop
    vertex 0 71.11999999999996 1
    vertex 0 81.27999999999997 0
    vertex 0 71.11999999999996 0
  endloop
endfacet
facet normal -1 0 0
  outer loop
    vertex 0 60.95999999999996 1
    vertex 0 71.11999999999996 1
    vertex 0 71.11999999999996 0
  endloop
endfacet
facet normal -1 0 0
  outer loop
    vertex 0 81.27999999999997 1
    vertex 0 91.43999999999998 0
    vertex 0 81.27999999999997 0
  endloop
endfacet
facet normal -1 0 0
  outer loop
    vertex 0 71.11999999999996 1
    vertex 0 81.27999999999997 1
    vertex 0 81.27999999999997 0
  endloop
endfacet
facet normal -1 0 0
  outer loop
    vertex 0 91.43999999999998 1
    vertex 0 101.6 0
    vertex 0 91.43999999999998 0
  endloop
endfacet
facet normal -1 0 0
  outer loop
    vertex 0 81.27999999999997 1
    vertex 0 91.43999999999998 1
    vertex 0 91.43999999999998 0
  endloop
endfacet
facet normal -1 0 0
  outer loop
    vertex 0 101.6 1
    vertex 0 111.76 0
    vertex 0 101.6 0
  endloop
endfacet
facet normal -1 0 0
  outer loop
    vertex 0 91.43999999999998 1
    vertex 0 101.6 1
    vertex 0 101.6 0
  endloop
endfacet
facet normal -1 0 0
  outer loop
    vertex 0 111.76 1
    vertex 0 121.92 0
    vertex 0 111.76 0
  endloop
endfacet
facet normal -1 0 0
  outer loop
    vertex 0 101.6 1
    vertex 0 111.76 1
    vertex 0 111.76 0
  endloop
endfacet
facet normal -1 0 0
  outer loop
    vertex 0 121.92 1
    vertex 0 132.08 0
    vertex 0 121.92 0
  endloop
endfacet
facet normal -1 0 0
  outer loop
    vertex 0 111.76 1
    vertex 0 121.92 1
    vertex 0 121.92 0
  endloop
endfacet
facet normal -1 0 0
  outer loop
    vertex 0 132.08 1
    vertex 0 142.24 0
    vertex 0 132.08 0
  endloop
endfacet
facet normal -1 0 0
  outer loop
    vertex 0 121.92 1
    vertex 0 132.08 1
    vertex 0 132.08 0
  endloop
endfacet
facet normal -1 0 0
  outer loop
    vertex 0 132.08 1
    vertex 0 142.24 1
    vertex 0 142.24 0
  endloop
endfacet
facet normal -0 1 0
  outer loop
    vertex -152.4 0 1
    vertex -142.24 0 1
    vertex -152.4 0 0
  endloop
endfacet
facet normal 0 1 0
  outer loop
    vertex -152.4 0 0
    vertex -142.24 0 1
    vertex -142.24 0 0
  endloop
endfacet
facet normal -0 1 0
  outer loop
    vertex -10.16 0 1
    vertex 0 0 1
    vertex 0 0 0
  endloop
endfacet
facet normal 0 1 0
  outer loop
    vertex -10.16 0 1
    vertex 0 0 0
    vertex -10.16 0 0
  endloop
endfacet
facet normal 0 1 0
  outer loop
    vertex -142.24 0 1
    vertex -132.08 0 0
    vertex -142.24 0 0
  endloop
endfacet
facet normal 0 1 0
  outer loop
    vertex -132.08 0 0
    vertex -132.08 0 1
    vertex -121.92 0 0
  endloop
endfacet
facet normal -0 1 0
  outer loop
    vertex -142.24 0 1
    vertex -132.08 0 1
    vertex -132.08 0 0
  endloop
endfacet
facet normal 0 1 0
  outer loop
    vertex -111.76 0 1
    vertex -111.76 0 0
    vertex -121.92 0 0
  endloop
endfacet
facet normal 0 1 -0
  outer loop
    vertex -121.92 0 0
    vertex -132.08 0 1
    vertex -121.92 0 1
  endloop
endfacet
facet normal 0 1 0
  outer loop
    vertex -111.76 0 1
    vertex -121.92 0 0
    vertex -121.92 0 1
  endloop
endfacet
facet normal 0 1 0
  outer loop
    vertex -111.76 0 1
    vertex -101.6000000000001 0 0
    vertex -111.76 0 0
  endloop
endfacet
facet normal 0 1 0
  outer loop
    vertex -101.6000000000001 0 0
    vertex -91.44000000000005 0 1
    vertex -91.44000000000005 0 0
  endloop
endfacet
facet normal -0 1 0
  outer loop
    vertex -111.76 0 1
    vertex -101.6000000000001 0 1
    vertex -101.6000000000001 0 0
  endloop
endfacet
facet normal -0 1 0
  outer loop
    vertex -101.6000000000001 0 1
    vertex -91.44000000000005 0 1
    vertex -101.6000000000001 0 0
  endloop
endfacet
facet normal 0 1 0
  outer loop
    vertex -91.44000000000005 0 1
    vertex -81.28000000000004 0 0
    vertex -91.44000000000005 0 0
  endloop
endfacet
facet normal 0 1 0
  outer loop
    vertex -71.12000000000003 0 1
    vertex -71.12000000000003 0 0
    vertex -81.28000000000004 0 0
  endloop
endfacet
facet normal 0 1 -0
  outer loop
    vertex -81.28000000000004 0 0
    vertex -91.44000000000005 0 1
    vertex -81.28000000000004 0 1
  endloop
endfacet
facet normal 0 1 0
  outer loop
    vertex -71.12000000000003 0 1
    vertex -81.28000000000004 0 0
    vertex -81.28000000000004 0 1
  endloop
endfacet
facet normal 0 1 0
  outer loop
    vertex -71.12000000000003 0 0
    vertex -60.96000000000002 0 1
    vertex -60.96000000000002 0 0
  endloop
endfacet
facet normal -0 1 0
  outer loop
    vertex -71.12000000000003 0 1
    vertex -60.96000000000002 0 1
    vertex -71.12000000000003 0 0
  endloop
endfacet
facet normal 0 1 0
  outer loop
    vertex -60.96000000000002 0 1
    vertex -50.80000000000003 0 0
    vertex -60.96000000000002 0 0
  endloop
endfacet
facet normal 0 1 0
  outer loop
    vertex -50.80000000000003 0 1
    vertex -40.64000000000001 0 0
    vertex -50.80000000000003 0 0
  endloop
endfacet
facet normal -0 1 0
  outer loop
    vertex -60.96000000000002 0 1
    vertex -50.80000000000003 0 1
    vertex -50.80000000000003 0 0
  endloop
endfacet
facet normal 0 1 0
  outer loop
    vertex -40.64000000000001 0 1
    vertex -30.48000000000002 0 0
    vertex -40.64000000000001 0 0
  endloop
endfacet
facet normal -0 1 0
  outer loop
    vertex -50.80000000000003 0 1
    vertex -40.64000000000001 0 1
    vertex -40.64000000000001 0 0
  endloop
endfacet
facet normal 0 1 0
  outer loop
    vertex -30.48000000000002 0 1
    vertex -20.32000000000002 0 0
    vertex -30.48000000000002 0 0
  endloop
endfacet
facet normal -0 1 0
  outer loop
    vertex -40.64000000000001 0 1
    vertex -30.48000000000002 0 1
    vertex -30.48000000000002 0 0
  endloop
endfacet
facet normal 0 1 0
  outer loop
    vertex -20.32000000000002 0 0
    vertex -10.16 0 1
    vertex -10.16 0 0
  endloop
endfacet
facet normal -0 1 0
  outer loop
    vertex -30.48000000000002 0 1
    vertex -20.32000000000002 0 1
    vertex -20.32000000000002 0 0
  endloop
endfacet
facet normal -0 1 0
  outer loop
    vertex -20.32000000000002 0 1
    vertex -10.16 0 1
    vertex -20.32000000000002 0 0
  endloop
endfacet
facet normal 0 0 -1
  outer loop
    vertex -152.4 0 1
    vertex -152.0447204246382 10.40014379677584 1
    vertex -150.386701539731 1.99999999999999 1
  endloop
endfacet
facet normal 0 0 -1
  outer loop
    vertex -142.24 0 1
    vertex -152.4 0 1
    vertex -150.386701539731 1.99999999999999 1
  endloop
endfacet
facet normal 0 0 -1
  outer loop
    vertex -152.0447204246382 10.40014379677584 1
    vertex -149.8761272794302 12.54218767679884 1
    vertex -150.386701539731 1.99999999999999 1
  endloop
endfacet
facet normal 0 0 -1
  outer loop
    vertex -139.7876514297502 2 1
    vertex -142.24 0 1
    vertex -150.386701539731 1.99999999999999 1
  endloop
endfacet
facet normal 0 0 -1
  outer loop
    vertex -10.40014379677584 152.0447204246382 1
    vertex 0 152.4 1
    vertex -2 150.386701539731 1
  endloop
endfacet
facet normal 0 -0 -1
  outer loop
    vertex 0 152.4 1
    vertex 0 142.24 1
    vertex -2 150.386701539731 1
  endloop
endfacet
facet normal 0 0 -1
  outer loop
    vertex -12.54218767679896 149.8761272794302 1
    vertex -10.40014379677584 152.0447204246382 1
    vertex -2 150.386701539731 1
  endloop
endfacet
facet normal -0 0 -1
  outer loop
    vertex 0 142.24 1
    vertex -1.999999999999997 139.7876514297502 1
    vertex -2 150.386701539731 1
  endloop
endfacet
facet normal 0 -0 -1
  outer loop
    vertex 0 10.15999999999999 1
    vertex 0 0 1
    vertex -1.99999999999999 1.99999999999999 1
  endloop
endfacet
facet normal 0 0 -1
  outer loop
    vertex 0 0 1
    vertex -10.16 0 1
    vertex -1.99999999999999 1.99999999999999 1
  endloop
endfacet
facet normal 0 0 -1
  outer loop
    vertex -10.16 0 1
    vertex -12.59905010998079 2 1
    vertex -1.99999999999999 1.99999999999999 1
  endloop
endfacet
facet normal 0 0 -1
  outer loop
    vertex -1.99999999999999 12.59905010998076 1
    vertex 0 10.15999999999999 1
    vertex -1.99999999999999 1.99999999999999 1
  endloop
endfacet
facet normal 0 0 -1
  outer loop
    vertex -148.627452057887 23.02260834007549 1
    vertex -149.8761272794302 12.54218767679884 1
    vertex -150.9805381759368 20.75179732226792 1
  endloop
endfacet
facet normal -0 0 -1
  outer loop
    vertex -149.8761272794302 12.54218767679884 1
    vertex -152.0447204246382 10.40014379677584 1
    vertex -150.9805381759368 20.75179732226792 1
  endloop
endfacet
facet normal 0 0 -1
  outer loop
    vertex -146.6468252759296 33.3896486428199 1
    vertex -148.627452057887 23.02260834007549 1
    vertex -149.212414962786 31.0066963892213 1
  endloop
endfacet
facet normal -0 0 -1
  outer loop
    vertex -148.627452057887 23.02260834007549 1
    vertex -150.9805381759368 20.75179732226792 1
    vertex -149.212414962786 31.0066963892213 1
  endloop
endfacet
facet normal 0 0 -1
  outer loop
    vertex -143.9440010055253 43.59225360682028 1
    vertex -146.6468252759296 33.3896486428199 1
    vertex -146.7485945918047 41.11702792433037 1
  endloop
endfacet
facet normal -0 0 -1
  outer loop
    vertex -146.6468252759296 33.3896486428199 1
    vertex -149.212414962786 31.0066963892213 1
    vertex -146.7485945918047 41.11702792433037 1
  endloop
endfacet
facet normal 0 0 -1
  outer loop
    vertex -140.5322899535107 53.58017805515757 1
    vertex -143.9440010055253 43.59225360682028 1
    vertex -143.6005645309083 51.03565289485807 1
  endloop
endfacet
facet normal -0 0 -1
  outer loop
    vertex -143.9440010055253 43.59225360682028 1
    vertex -146.7485945918047 41.11702792433037 1
    vertex -143.6005645309083 51.03565289485807 1
  endloop
endfacet
facet normal 0 0 -1
  outer loop
    vertex -136.428493909822 63.30423405663847 1
    vertex -140.5322899535107 53.58017805515757 1
    vertex -139.7830023494311 60.716326092567 1
  endloop
endfacet
facet normal -0 0 -1
  outer loop
    vertex -140.5322899535107 53.58017805515757 1
    vertex -143.6005645309083 51.03565289485807 1
    vertex -139.7830023494311 60.716326092567 1
  endloop
endfacet
facet normal 0 0 -1
  outer loop
    vertex -131.6528230030471 72.7165331635685 1
    vertex -136.428493909822 63.30423405663847 1
    vertex -135.3137072845221 70.11391175022736 1
  endloop
endfacet
facet normal -0 0 -1
  outer loop
    vertex -136.428493909822 63.30423405663847 1
    vertex -139.7830023494311 60.716326092567 1
    vertex -135.3137072845221 70.11391175022736 1
  endloop
endfacet
facet normal 0 0 -1
  outer loop
    vertex -126.228796170797 81.77072224990665 1
    vertex -131.6528230030471 72.7165331635685 1
    vertex -130.213517252885 79.18459398539989 1
  endloop
endfacet
facet normal -0 0 -1
  outer loop
    vertex -131.6528230030471 72.7165331635685 1
    vertex -135.3137072845221 70.11391175022736 1
    vertex -130.213517252885 79.18459398539989 1
  endloop
endfacet
facet normal 0 0 -1
  outer loop
    vertex -120.1831253350528 90.42221178835973 1
    vertex -126.228796170797 81.77072224990665 1
    vertex -124.5062116947914 87.88608109030565 1
  endloop
endfacet
facet normal -0 0 -1
  outer loop
    vertex -126.228796170797 81.77072224990665 1
    vertex -130.213517252885 79.18459398539989 1
    vertex -124.5062116947914 87.88608109030565 1
  endloop
endfacet
facet normal 0 0 -1
  outer loop
    vertex -113.5455838528942 98.62839544221211 1
    vertex -120.1831253350528 90.42221178835973 1
    vertex -118.2184007033537 96.17780271529037 1
  endloop
endfacet
facet normal -0 0 -1
  outer loop
    vertex -120.1831253350528 90.42221178835973 1
    vertex -124.5062116947914 87.88608109030565 1
    vertex -118.2184007033537 96.17780271529037 1
  endloop
endfacet
facet normal 0 0 -1
  outer loop
    vertex -106.3488598904567 106.3488598904568 1
    vertex -113.5455838528942 98.62839544221211 1
    vertex -111.3794009559862 104.0210990265228 1
  endloop
endfacet
facet normal -0 0 -1
  outer loop
    vertex -113.5455838528942 98.62839544221211 1
    vertex -118.2184007033537 96.17780271529037 1
    vertex -111.3794009559862 104.0210990265228 1
  endloop
endfacet
facet normal 0 0 -1
  outer loop
    vertex -98.6283954422121 113.5455838528942 1
    vertex -106.3488598904567 106.3488598904568 1
    vertex -104.0210990265229 111.3794009559861 1
  endloop
endfacet
facet normal -0 0 -1
  outer loop
    vertex -106.3488598904567 106.3488598904568 1
    vertex -111.3794009559862 104.0210990265228 1
    vertex -104.0210990265229 111.3794009559861 1
  endloop
endfacet
facet normal 0 0 -1
  outer loop
    vertex -90.42221178835966 120.1831253350529 1
    vertex -98.6283954422121 113.5455838528942 1
    vertex -96.17780271529045 118.2184007033536 1
  endloop
endfacet
facet normal -0 0 -1
  outer loop
    vertex -98.6283954422121 113.5455838528942 1
    vertex -104.0210990265229 111.3794009559861 1
    vertex -96.17780271529045 118.2184007033536 1
  endloop
endfacet
facet normal 0 0 -1
  outer loop
    vertex -81.77072224990653 126.2287961707971 1
    vertex -90.42221178835966 120.1831253350529 1
    vertex -87.88608109030575 124.5062116947914 1
  endloop
endfacet
facet normal -0 0 -1
  outer loop
    vertex -90.42221178835966 120.1831253350529 1
    vertex -96.17780271529045 118.2184007033536 1
    vertex -87.88608109030575 124.5062116947914 1
  endloop
endfacet
facet normal 0 0 -1
  outer loop
    vertex -72.71653316356831 131.6528230030472 1
    vertex -81.77072224990653 126.2287961707971 1
    vertex -79.18459398540004 130.2135172528849 1
  endloop
endfacet
facet normal -0 0 -1
  outer loop
    vertex -81.77072224990653 126.2287961707971 1
    vertex -87.88608109030575 124.5062116947914 1
    vertex -79.18459398540004 130.2135172528849 1
  endloop
endfacet
facet normal 0 0 -1
  outer loop
    vertex -63.30423405663827 136.4284939098221 1
    vertex -72.71653316356831 131.6528230030472 1
    vertex -70.11391175022759 135.313707284522 1
  endloop
endfacet
facet normal -0 0 -1
  outer loop
    vertex -72.71653316356831 131.6528230030472 1
    vertex -79.18459398540004 130.2135172528849 1
    vertex -70.11391175022759 135.313707284522 1
  endloop
endfacet
facet normal 0 0 -1
  outer loop
    vertex -53.58017805515749 140.5322899535108 1
    vertex -63.30423405663827 136.4284939098221 1
    vertex -60.71632609256717 139.7830023494311 1
  endloop
endfacet
facet normal -0 0 -1
  outer loop
    vertex -63.30423405663827 136.4284939098221 1
    vertex -70.11391175022759 135.313707284522 1
    vertex -60.71632609256717 139.7830023494311 1
  endloop
endfacet
facet normal 0 0 -1
  outer loop
    vertex -43.5922536068202 143.9440010055253 1
    vertex -53.58017805515749 140.5322899535108 1
    vertex -51.03565289485826 143.6005645309083 1
  endloop
endfacet
facet normal -0 0 -1
  outer loop
    vertex -53.58017805515749 140.5322899535108 1
    vertex -60.71632609256717 139.7830023494311 1
    vertex -51.03565289485826 143.6005645309083 1
  endloop
endfacet
facet normal -0 0 -1
  outer loop
    vertex -33.38964864281981 146.6468252759297 1
    vertex -43.5922536068202 143.9440010055253 1
    vertex -41.11702792433047 146.7485945918046 1
  endloop
endfacet
facet normal -0 0 -1
  outer loop
    vertex -43.5922536068202 143.9440010055253 1
    vertex -51.03565289485826 143.6005645309083 1
    vertex -41.11702792433047 146.7485945918046 1
  endloop
endfacet
facet normal -0 0 -1
  outer loop
    vertex -23.02260834007547 148.627452057887 1
    vertex -33.38964864281981 146.6468252759297 1
    vertex -31.00669638922137 149.212414962786 1
  endloop
endfacet
facet normal 0 0 -1
  outer loop
    vertex -33.38964864281981 146.6468252759297 1
    vertex -41.11702792433047 146.7485945918046 1
    vertex -31.00669638922137 149.212414962786 1
  endloop
endfacet
facet normal -0 0 -1
  outer loop
    vertex -12.54218767679896 149.8761272794302 1
    vertex -23.02260834007547 148.627452057887 1
    vertex -20.75179732226796 150.9805381759368 1
  endloop
endfacet
facet normal 0 0 -1
  outer loop
    vertex -23.02260834007547 148.627452057887 1
    vertex -31.00669638922137 149.212414962786 1
    vertex -20.75179732226796 150.9805381759368 1
  endloop
endfacet
facet normal 0 0 -1
  outer loop
    vertex -12.54218767679896 149.8761272794302 1
    vertex -20.75179732226796 150.9805381759368 1
    vertex -10.40014379677584 152.0447204246382 1
  endloop
endfacet
facet normal 0 0 -1
  outer loop
    vertex -23.19810021996156 2 1
    vertex -12.59905010998079 2 1
    vertex -20.32000000000002 0 1
  endloop
endfacet
facet normal 0 -0 -1
  outer loop
    vertex -12.59905010998079 2 1
    vertex -10.16 0 1
    vertex -20.32000000000002 0 1
  endloop
endfacet
facet normal 0 0 -1
  outer loop
    vertex -33.79715032994235 2 1
    vertex -23.19810021996156 2 1
    vertex -30.48000000000002 0 1
  endloop
endfacet
facet normal 0 -0 -1
  outer loop
    vertex -23.19810021996156 2 1
    vertex -20.32000000000002 0 1
    vertex -30.48000000000002 0 1
  endloop
endfacet
facet normal 0 0 -1
  outer loop
    vertex -44.39620043992315 2 1
    vertex -33.79715032994235 2 1
    vertex -40.64000000000001 0 1
  endloop
endfacet
facet normal 0 -0 -1
  outer loop
    vertex -33.79715032994235 2 1
    vertex -30.48000000000002 0 1
    vertex -40.64000000000001 0 1
  endloop
endfacet
facet normal 0 0 -1
  outer loop
    vertex -54.99525054990394 2 1
    vertex -44.39620043992315 2 1
    vertex -50.80000000000003 0 1
  endloop
endfacet
facet normal 0 -0 -1
  outer loop
    vertex -44.39620043992315 2 1
    vertex -40.64000000000001 0 1
    vertex -50.80000000000003 0 1
  endloop
endfacet
facet normal -0 0 -1
  outer loop
    vertex -54.99525054990394 2 1
    vertex -60.96000000000002 0 1
    vertex -65.59430065988477 2 1
  endloop
endfacet
facet normal 0 -0 -1
  outer loop
    vertex -54.99525054990394 2 1
    vertex -50.80000000000003 0 1
    vertex -60.96000000000002 0 1
  endloop
endfacet
facet normal 0 0 -1
  outer loop
    vertex -71.12000000000003 0 1
    vertex -76.19335076986557 2 1
    vertex -65.59430065988477 2 1
  endloop
endfacet
facet normal 0 0 -1
  outer loop
    vertex -60.96000000000002 0 1
    vertex -71.12000000000003 0 1
    vertex -65.59430065988477 2 1
  endloop
endfacet
facet normal 0 0 -1
  outer loop
    vertex -86.79240087984638 2 1
    vertex -76.19335076986557 2 1
    vertex -81.28000000000004 0 1
  endloop
endfacet
facet normal 0 -0 -1
  outer loop
    vertex -76.19335076986557 2 1
    vertex -71.12000000000003 0 1
    vertex -81.28000000000004 0 1
  endloop
endfacet
facet normal 0 0 -1
  outer loop
    vertex -97.39145098982715 2 1
    vertex -86.79240087984638 2 1
    vertex -91.44000000000005 0 1
  endloop
endfacet
facet normal 0 0 -1
  outer loop
    vertex -91.44000000000005 0 1
    vertex -86.79240087984638 2 1
    vertex -81.28000000000004 0 1
  endloop
endfacet
facet normal 0 0 -1
  outer loop
    vertex -107.9905010998079 2 1
    vertex -97.39145098982715 2 1
    vertex -101.6000000000001 0 1
  endloop
endfacet
facet normal 0 -0 -1
  outer loop
    vertex -97.39145098982715 2 1
    vertex -91.44000000000005 0 1
    vertex -101.6000000000001 0 1
  endloop
endfacet
facet normal 0 0 -1
  outer loop
    vertex -118.5895512097887 2 1
    vertex -107.9905010998079 2 1
    vertex -111.76 0 1
  endloop
endfacet
facet normal 0 -0 -1
  outer loop
    vertex -107.9905010998079 2 1
    vertex -101.6000000000001 0 1
    vertex -111.76 0 1
  endloop
endfacet
facet normal 0 0 -1
  outer loop
    vertex -129.1886013197695 2 1
    vertex -118.5895512097887 2 1
    vertex -121.92 0 1
  endloop
endfacet
facet normal 0 0 -1
  outer loop
    vertex -121.92 0 1
    vertex -118.5895512097887 2 1
    vertex -111.76 0 1
  endloop
endfacet
facet normal 0 0 -1
  outer loop
    vertex -139.7876514297502 2 1
    vertex -129.1886013197695 2 1
    vertex -132.08 0 1
  endloop
endfacet
facet normal 0 -0 -1
  outer loop
    vertex -129.1886013197695 2 1
    vertex -121.92 0 1
    vertex -132.08 0 1
  endloop
endfacet
facet normal 0 0 -1
  outer loop
    vertex -142.24 0 1
    vertex -139.7876514297502 2 1
    vertex -132.08 0 1
  endloop
endfacet
facet normal 0 0 -1
  outer loop
    vertex -1.999999999999996 129.1886013197694 1
    vertex -1.999999999999997 139.7876514297502 1
    vertex 0 132.08 1
  endloop
endfacet
facet normal 0 0 -1
  outer loop
    vertex -1.999999999999997 139.7876514297502 1
    vertex 0 142.24 1
    vertex 0 132.08 1
  endloop
endfacet
facet normal 0 0 -1
  outer loop
    vertex -1.999999999999996 129.1886013197694 1
    vertex 0 121.92 1
    vertex -1.999999999999996 118.5895512097887 1
  endloop
endfacet
facet normal 0 0 -1
  outer loop
    vertex -1.999999999999996 129.1886013197694 1
    vertex 0 132.08 1
    vertex 0 121.92 1
  endloop
endfacet
facet normal 0 0 -1
  outer loop
    vertex -1.999999999999996 118.5895512097887 1
    vertex 0 111.76 1
    vertex -1.999999999999995 107.9905010998079 1
  endloop
endfacet
facet normal 0 -0 -1
  outer loop
    vertex 0 121.92 1
    vertex 0 111.76 1
    vertex -1.999999999999996 118.5895512097887 1
  endloop
endfacet
facet normal -0 0 -1
  outer loop
    vertex 0 101.6 1
    vertex -1.999999999999995 97.39145098982706 1
    vertex -1.999999999999995 107.9905010998079 1
  endloop
endfacet
facet normal 0 -0 -1
  outer loop
    vertex 0 111.76 1
    vertex 0 101.6 1
    vertex -1.999999999999995 107.9905010998079 1
  endloop
endfacet
facet normal 0 0 -1
  outer loop
    vertex -1.999999999999995 97.39145098982706 1
    vertex 0 91.43999999999998 1
    vertex -1.999999999999994 86.79240087984624 1
  endloop
endfacet
facet normal 0 -0 -1
  outer loop
    vertex 0 101.6 1
    vertex 0 91.43999999999998 1
    vertex -1.999999999999995 97.39145098982706 1
  endloop
endfacet
facet normal -0 0 -1
  outer loop
    vertex 0 81.27999999999997 1
    vertex -1.999999999999994 76.19335076986543 1
    vertex -1.999999999999994 86.79240087984624 1
  endloop
endfacet
facet normal 0 -0 -1
  outer loop
    vertex 0 91.43999999999998 1
    vertex 0 81.27999999999997 1
    vertex -1.999999999999994 86.79240087984624 1
  endloop
endfacet
facet normal -0 0 -1
  outer loop
    vertex 0 71.11999999999996 1
    vertex -1.999999999999993 65.59430065988462 1
    vertex -1.999999999999994 76.19335076986543 1
  endloop
endfacet
facet normal 0 -0 -1
  outer loop
    vertex 0 81.27999999999997 1
    vertex 0 71.11999999999996 1
    vertex -1.999999999999994 76.19335076986543 1
  endloop
endfacet
facet normal 0 0 -1
  outer loop
    vertex -1.999999999999993 65.59430065988462 1
    vertex 0 60.95999999999996 1
    vertex -1.999999999999992 54.99525054990387 1
  endloop
endfacet
facet normal 0 0 -1
  outer loop
    vertex -1.999999999999993 65.59430065988462 1
    vertex 0 71.11999999999996 1
    vertex 0 60.95999999999996 1
  endloop
endfacet
facet normal -0 0 -1
  outer loop
    vertex 0 50.79999999999995 1
    vertex -1.999999999999992 44.39620043992308 1
    vertex -1.999999999999992 54.99525054990387 1
  endloop
endfacet
facet normal 0 -0 -1
  outer loop
    vertex 0 60.95999999999996 1
    vertex 0 50.79999999999995 1
    vertex -1.999999999999992 54.99525054990387 1
  endloop
endfacet
facet normal -0 0 -1
  outer loop
    vertex 0 40.63999999999995 1
    vertex -1.999999999999992 33.79715032994231 1
    vertex -1.999999999999992 44.39620043992308 1
  endloop
endfacet
facet normal 0 -0 -1
  outer loop
    vertex 0 50.79999999999995 1
    vertex 0 40.63999999999995 1
    vertex -1.999999999999992 44.39620043992308 1
  endloop
endfacet
facet normal -0 0 -1
  outer loop
    vertex 0 30.47999999999997 1
    vertex -1.999999999999991 23.19810021996154 1
    vertex -1.999999999999992 33.79715032994231 1
  endloop
endfacet
facet normal 0 -0 -1
  outer loop
    vertex 0 40.63999999999995 1
    vertex 0 30.47999999999997 1
    vertex -1.999999999999992 33.79715032994231 1
  endloop
endfacet
facet normal -0 0 -1
  outer loop
    vertex 0 20.31999999999997 1
    vertex -1.99999999999999 12.59905010998076 1
    vertex -1.999999999999991 23.19810021996154 1
  endloop
endfacet
facet normal 0 -0 -1
  outer loop
    vertex 0 30.47999999999997 1
    vertex 0 20.31999999999997 1
    vertex -1.999999999999991 23.19810021996154 1
  endloop
endfacet
facet normal 0 -0 -1
  outer loop
    vertex 0 20.31999999999997 1
    vertex 0 10.15999999999999 1
    vertex -1.99999999999999 12.59905010998076 1
  endloop
endfacet
facet normal 0 0 1
  outer loop
    vertex -152.0447204246382 10.40014379677584 0
    vertex -152.4 0 0
    vertex -150.386701539731 2 0
  endloop
endfacet
facet normal 0 0 1
  outer loop
    vertex -150.386701539731 2 0
    vertex -152.4 0 0
    vertex -142.24 0 0
  endloop
endfacet
facet normal 0 0 1
  outer loop
    vertex -149.8761272794302 12.54218767679891 0
    vertex -152.0447204246382 10.40014379677584 0
    vertex -150.386701539731 2 0
  endloop
endfacet
facet normal 0 -0 1
  outer loop
    vertex -142.24 0 0
    vertex -139.7876514297502 2 0
    vertex -150.386701539731 2 0
  endloop
endfacet
facet normal 0 -0 1
  outer loop
    vertex -2 150.386701539731 0
    vertex 0 152.4 0
    vertex -10.40014379677584 152.0447204246382 0
  endloop
endfacet
facet normal 0 -0 1
  outer loop
    vertex 0 142.24 0
    vertex 0 152.4 0
    vertex -2 150.386701539731 0
  endloop
endfacet
facet normal 0 0 1
  outer loop
    vertex -10.40014379677584 152.0447204246382 0
    vertex -12.54218767679896 149.8761272794302 0
    vertex -2 150.386701539731 0
  endloop
endfacet
facet normal 0 -0 1
  outer loop
    vertex -1.999999999999997 139.7876514297502 0
    vertex 0 142.24 0
    vertex -2 150.386701539731 0
  endloop
endfacet
facet normal 0 -0 1
  outer loop
    vertex 0 0 0
    vertex 0 10.15999999999999 0
    vertex -1.99999999999999 2 0
  endloop
endfacet
facet normal 0 0 1
  outer loop
    vertex -10.16 0 0
    vertex 0 0 0
    vertex -1.99999999999999 2 0
  endloop
endfacet
facet normal 0 0 1
  outer loop
    vertex -1.99999999999999 2 0
    vertex -12.59905010998079 2 0
    vertex -10.16 0 0
  endloop
endfacet
facet normal 0 -0 1
  outer loop
    vertex -1.99999999999999 2 0
    vertex 0 10.15999999999999 0
    vertex -1.99999999999999 12.59905010998077 0
  endloop
endfacet
facet normal 0 0 1
  outer loop
    vertex -148.627452057887 23.02260834007556 0
    vertex -150.9805381759368 20.75179732226792 0
    vertex -149.8761272794302 12.54218767679891 0
  endloop
endfacet
facet normal 0 0 1
  outer loop
    vertex -149.8761272794302 12.54218767679891 0
    vertex -150.9805381759368 20.75179732226792 0
    vertex -152.0447204246382 10.40014379677584 0
  endloop
endfacet
facet normal 0 0 1
  outer loop
    vertex -146.6468252759296 33.3896486428199 0
    vertex -149.212414962786 31.0066963892213 0
    vertex -148.627452057887 23.02260834007556 0
  endloop
endfacet
facet normal 0 0 1
  outer loop
    vertex -148.627452057887 23.02260834007556 0
    vertex -149.212414962786 31.0066963892213 0
    vertex -150.9805381759368 20.75179732226792 0
  endloop
endfacet
facet normal 0 0 1
  outer loop
    vertex -143.9440010055253 43.59225360682035 0
    vertex -146.7485945918047 41.11702792433037 0
    vertex -146.6468252759296 33.3896486428199 0
  endloop
endfacet
facet normal 0 0 1
  outer loop
    vertex -146.6468252759296 33.3896486428199 0
    vertex -146.7485945918047 41.11702792433037 0
    vertex -149.212414962786 31.0066963892213 0
  endloop
endfacet
facet normal 0 0 1
  outer loop
    vertex -140.5322899535107 53.58017805515763 0
    vertex -143.6005645309083 51.03565289485807 0
    vertex -143.9440010055253 43.59225360682035 0
  endloop
endfacet
facet normal 0 -0 1
  outer loop
    vertex -143.9440010055253 43.59225360682035 0
    vertex -143.6005645309083 51.03565289485807 0
    vertex -146.7485945918047 41.11702792433037 0
  endloop
endfacet
facet normal 0 0 1
  outer loop
    vertex -136.428493909822 63.30423405663853 0
    vertex -139.7830023494311 60.716326092567 0
    vertex -140.5322899535107 53.58017805515763 0
  endloop
endfacet
facet normal 0 -0 1
  outer loop
    vertex -140.5322899535107 53.58017805515763 0
    vertex -139.7830023494311 60.716326092567 0
    vertex -143.6005645309083 51.03565289485807 0
  endloop
endfacet
facet normal 0 0 1
  outer loop
    vertex -131.652823003047 72.71653316356856 0
    vertex -135.3137072845221 70.11391175022736 0
    vertex -136.428493909822 63.30423405663853 0
  endloop
endfacet
facet normal 0 -0 1
  outer loop
    vertex -136.428493909822 63.30423405663853 0
    vertex -135.3137072845221 70.11391175022736 0
    vertex -139.7830023494311 60.716326092567 0
  endloop
endfacet
facet normal 0 0 1
  outer loop
    vertex -126.228796170797 81.77072224990665 0
    vertex -130.213517252885 79.18459398539989 0
    vertex -131.652823003047 72.71653316356856 0
  endloop
endfacet
facet normal 0 -0 1
  outer loop
    vertex -131.652823003047 72.71653316356856 0
    vertex -130.213517252885 79.18459398539989 0
    vertex -135.3137072845221 70.11391175022736 0
  endloop
endfacet
facet normal 0 0 1
  outer loop
    vertex -120.1831253350528 90.42221178835977 0
    vertex -124.5062116947914 87.88608109030565 0
    vertex -126.228796170797 81.77072224990665 0
  endloop
endfacet
facet normal 0 -0 1
  outer loop
    vertex -126.228796170797 81.77072224990665 0
    vertex -124.5062116947914 87.88608109030565 0
    vertex -130.213517252885 79.18459398539989 0
  endloop
endfacet
facet normal 0 0 1
  outer loop
    vertex -113.5455838528942 98.62839544221217 0
    vertex -118.2184007033537 96.17780271529037 0
    vertex -120.1831253350528 90.42221178835977 0
  endloop
endfacet
facet normal 0 -0 1
  outer loop
    vertex -120.1831253350528 90.42221178835977 0
    vertex -118.2184007033537 96.17780271529037 0
    vertex -124.5062116947914 87.88608109030565 0
  endloop
endfacet
facet normal 0 0 1
  outer loop
    vertex -106.3488598904567 106.3488598904568 0
    vertex -111.3794009559862 104.0210990265228 0
    vertex -113.5455838528942 98.62839544221217 0
  endloop
endfacet
facet normal 0 -0 1
  outer loop
    vertex -113.5455838528942 98.62839544221217 0
    vertex -111.3794009559862 104.0210990265228 0
    vertex -118.2184007033537 96.17780271529037 0
  endloop
endfacet
facet normal 0 0 1
  outer loop
    vertex -98.62839544221204 113.5455838528943 0
    vertex -104.0210990265229 111.3794009559861 0
    vertex -106.3488598904567 106.3488598904568 0
  endloop
endfacet
facet normal 0 -0 1
  outer loop
    vertex -106.3488598904567 106.3488598904568 0
    vertex -104.0210990265229 111.3794009559861 0
    vertex -111.3794009559862 104.0210990265228 0
  endloop
endfacet
facet normal 0 0 1
  outer loop
    vertex -90.42221178835955 120.183125335053 0
    vertex -96.17780271529045 118.2184007033536 0
    vertex -98.62839544221204 113.5455838528943 0
  endloop
endfacet
facet normal 0 -0 1
  outer loop
    vertex -98.62839544221204 113.5455838528943 0
    vertex -96.17780271529045 118.2184007033536 0
    vertex -104.0210990265229 111.3794009559861 0
  endloop
endfacet
facet normal 0 0 1
  outer loop
    vertex -81.77072224990641 126.2287961707972 0
    vertex -87.88608109030575 124.5062116947914 0
    vertex -90.42221178835955 120.183125335053 0
  endloop
endfacet
facet normal 0 -0 1
  outer loop
    vertex -90.42221178835955 120.183125335053 0
    vertex -87.88608109030575 124.5062116947914 0
    vertex -96.17780271529045 118.2184007033536 0
  endloop
endfacet
facet normal 0 0 1
  outer loop
    vertex -72.71653316356831 131.6528230030472 0
    vertex -79.18459398540004 130.2135172528849 0
    vertex -81.77072224990641 126.2287961707972 0
  endloop
endfacet
facet normal 0 -0 1
  outer loop
    vertex -81.77072224990641 126.2287961707972 0
    vertex -79.18459398540004 130.2135172528849 0
    vertex -87.88608109030575 124.5062116947914 0
  endloop
endfacet
facet normal 0 0 1
  outer loop
    vertex -63.30423405663827 136.4284939098221 0
    vertex -70.11391175022759 135.313707284522 0
    vertex -72.71653316356831 131.6528230030472 0
  endloop
endfacet
facet normal 0 -0 1
  outer loop
    vertex -72.71653316356831 131.6528230030472 0
    vertex -70.11391175022759 135.313707284522 0
    vertex -79.18459398540004 130.2135172528849 0
  endloop
endfacet
facet normal 0 0 1
  outer loop
    vertex -53.58017805515749 140.5322899535108 0
    vertex -60.71632609256717 139.7830023494311 0
    vertex -63.30423405663827 136.4284939098221 0
  endloop
endfacet
facet normal 0 -0 1
  outer loop
    vertex -63.30423405663827 136.4284939098221 0
    vertex -60.71632609256717 139.7830023494311 0
    vertex -70.11391175022759 135.313707284522 0
  endloop
endfacet
facet normal 0 0 1
  outer loop
    vertex -43.5922536068202 143.9440010055253 0
    vertex -51.03565289485826 143.6005645309083 0
    vertex -53.58017805515749 140.5322899535108 0
  endloop
endfacet
facet normal 0 -0 1
  outer loop
    vertex -53.58017805515749 140.5322899535108 0
    vertex -51.03565289485826 143.6005645309083 0
    vertex -60.71632609256717 139.7830023494311 0
  endloop
endfacet
facet normal 0 0 1
  outer loop
    vertex -33.38964864281981 146.6468252759297 0
    vertex -41.11702792433047 146.7485945918046 0
    vertex -43.5922536068202 143.9440010055253 0
  endloop
endfacet
facet normal 0 -0 1
  outer loop
    vertex -43.5922536068202 143.9440010055253 0
    vertex -41.11702792433047 146.7485945918046 0
    vertex -51.03565289485826 143.6005645309083 0
  endloop
endfacet
facet normal 0 0 1
  outer loop
    vertex -23.02260834007547 148.627452057887 0
    vertex -31.00669638922137 149.212414962786 0
    vertex -33.38964864281981 146.6468252759297 0
  endloop
endfacet
facet normal 0 -0 1
  outer loop
    vertex -33.38964864281981 146.6468252759297 0
    vertex -31.00669638922137 149.212414962786 0
    vertex -41.11702792433047 146.7485945918046 0
  endloop
endfacet
facet normal 0 0 1
  outer loop
    vertex -23.02260834007547 148.627452057887 0
    vertex -12.54218767679896 149.8761272794302 0
    vertex -20.75179732226796 150.9805381759368 0
  endloop
endfacet
facet normal 0 -0 1
  outer loop
    vertex -23.02260834007547 148.627452057887 0
    vertex -20.75179732226796 150.9805381759368 0
    vertex -31.00669638922137 149.212414962786 0
  endloop
endfacet
facet normal -0 0 1
  outer loop
    vertex -20.75179732226796 150.9805381759368 0
    vertex -12.54218767679896 149.8761272794302 0
    vertex -10.40014379677584 152.0447204246382 0
  endloop
endfacet
facet normal 0 -0 1
  outer loop
    vertex -20.32000000000002 0 0
    vertex -12.59905010998079 2 0
    vertex -23.19810021996156 2 0
  endloop
endfacet
facet normal 0 0 1
  outer loop
    vertex -10.16 0 0
    vertex -12.59905010998079 2 0
    vertex -20.32000000000002 0 0
  endloop
endfacet
facet normal 0 -0 1
  outer loop
    vertex -30.48000000000002 0 0
    vertex -23.19810021996156 2 0
    vertex -33.79715032994235 2 0
  endloop
endfacet
facet normal 0 0 1
  outer loop
    vertex -20.32000000000002 0 0
    vertex -23.19810021996156 2 0
    vertex -30.48000000000002 0 0
  endloop
endfacet
facet normal 0 -0 1
  outer loop
    vertex -40.64000000000001 0 0
    vertex -33.79715032994235 2 0
    vertex -44.39620043992315 2 0
  endloop
endfacet
facet normal 0 0 1
  outer loop
    vertex -30.48000000000002 0 0
    vertex -33.79715032994235 2 0
    vertex -40.64000000000001 0 0
  endloop
endfacet
facet normal 0 -0 1
  outer loop
    vertex -50.80000000000003 0 0
    vertex -44.39620043992315 2 0
    vertex -54.99525054990394 2 0
  endloop
endfacet
facet normal 0 0 1
  outer loop
    vertex -40.64000000000001 0 0
    vertex -44.39620043992315 2 0
    vertex -50.80000000000003 0 0
  endloop
endfacet
facet normal 0 -0 1
  outer loop
    vertex -60.96000000000002 0 0
    vertex -54.99525054990394 2 0
    vertex -65.59430065988477 2 0
  endloop
endfacet
facet normal 0 0 1
  outer loop
    vertex -50.80000000000003 0 0
    vertex -54.99525054990394 2 0
    vertex -60.96000000000002 0 0
  endloop
endfacet
facet normal 0 -0 1
  outer loop
    vertex -71.12000000000003 0 0
    vertex -65.59430065988477 2 0
    vertex -76.19335076986557 2 0
  endloop
endfacet
facet normal 0 0 1
  outer loop
    vertex -60.96000000000002 0 0
    vertex -65.59430065988477 2 0
    vertex -71.12000000000003 0 0
  endloop
endfacet
facet normal 0 -0 1
  outer loop
    vertex -81.28000000000004 0 0
    vertex -76.19335076986557 2 0
    vertex -86.79240087984638 2 0
  endloop
endfacet
facet normal 0 0 1
  outer loop
    vertex -71.12000000000003 0 0
    vertex -76.19335076986557 2 0
    vertex -81.28000000000004 0 0
  endloop
endfacet
facet normal 0 -0 1
  outer loop
    vertex -91.44000000000005 0 0
    vertex -86.79240087984638 2 0
    vertex -97.39145098982715 2 0
  endloop
endfacet
facet normal 0 0 1
  outer loop
    vertex -81.28000000000004 0 0
    vertex -86.79240087984638 2 0
    vertex -91.44000000000005 0 0
  endloop
endfacet
facet normal 0 -0 1
  outer loop
    vertex -101.6000000000001 0 0
    vertex -97.39145098982715 2 0
    vertex -107.9905010998079 2 0
  endloop
endfacet
facet normal 0 0 1
  outer loop
    vertex -91.44000000000005 0 0
    vertex -97.39145098982715 2 0
    vertex -101.6000000000001 0 0
  endloop
endfacet
facet normal 0 -0 1
  outer loop
    vertex -111.76 0 0
    vertex -107.9905010998079 2 0
    vertex -118.5895512097887 2 0
  endloop
endfacet
facet normal 0 0 1
  outer loop
    vertex -101.6000000000001 0 0
    vertex -107.9905010998079 2 0
    vertex -111.76 0 0
  endloop
endfacet
facet normal 0 -0 1
  outer loop
    vertex -121.92 0 0
    vertex -118.5895512097887 2 0
    vertex -129.1886013197695 2 0
  endloop
endfacet
facet normal 0 0 1
  outer loop
    vertex -111.76 0 0
    vertex -118.5895512097887 2 0
    vertex -121.92 0 0
  endloop
endfacet
facet normal 0 -0 1
  outer loop
    vertex -132.08 0 0
    vertex -129.1886013197695 2 0
    vertex -139.7876514297502 2 0
  endloop
endfacet
facet normal 0 0 1
  outer loop
    vertex -121.92 0 0
    vertex -129.1886013197695 2 0
    vertex -132.08 0 0
  endloop
endfacet
facet normal 0 0 1
  outer loop
    vertex -132.08 0 0
    vertex -139.7876514297502 2 0
    vertex -142.24 0 0
  endloop
endfacet
facet normal 0 -0 1
  outer loop
    vertex -1.999999999999996 129.1886013197694 0
    vertex 0 132.08 0
    vertex -1.999999999999997 139.7876514297502 0
  endloop
endfacet
facet normal -0 0 1
  outer loop
    vertex -1.999999999999997 139.7876514297502 0
    vertex 0 132.08 0
    vertex 0 142.24 0
  endloop
endfacet
facet normal 0 -0 1
  outer loop
    vertex -1.999999999999996 118.5895512097887 0
    vertex 0 121.92 0
    vertex -1.999999999999996 129.1886013197694 0
  endloop
endfacet
facet normal -0 0 1
  outer loop
    vertex -1.999999999999996 129.1886013197694 0
    vertex 0 121.92 0
    vertex 0 132.08 0
  endloop
endfacet
facet normal 0 -0 1
  outer loop
    vertex -1.999999999999995 107.9905010998079 0
    vertex 0 111.76 0
    vertex -1.999999999999996 118.5895512097887 0
  endloop
endfacet
facet normal -0 0 1
  outer loop
    vertex -1.999999999999996 118.5895512097887 0
    vertex 0 111.76 0
    vertex 0 121.92 0
  endloop
endfacet
facet normal 0 -0 1
  outer loop
    vertex -1.999999999999995 97.39145098982706 0
    vertex 0 101.6 0
    vertex -1.999999999999995 107.9905010998079 0
  endloop
endfacet
facet normal -0 0 1
  outer loop
    vertex -1.999999999999995 107.9905010998079 0
    vertex 0 101.6 0
    vertex 0 111.76 0
  endloop
endfacet
facet normal 0 -0 1
  outer loop
    vertex -1.999999999999994 86.79240087984624 0
    vertex 0 91.43999999999998 0
    vertex -1.999999999999995 97.39145098982706 0
  endloop
endfacet
facet normal -0 0 1
  outer loop
    vertex -1.999999999999995 97.39145098982706 0
    vertex 0 91.43999999999998 0
    vertex 0 101.6 0
  endloop
endfacet
facet normal 0 -0 1
  outer loop
    vertex -1.999999999999994 76.19335076986543 0
    vertex 0 81.27999999999997 0
    vertex -1.999999999999994 86.79240087984624 0
  endloop
endfacet
facet normal -0 0 1
  outer loop
    vertex -1.999999999999994 86.79240087984624 0
    vertex 0 81.27999999999997 0
    vertex 0 91.43999999999998 0
  endloop
endfacet
facet normal 0 -0 1
  outer loop
    vertex -1.999999999999993 65.59430065988462 0
    vertex 0 71.11999999999996 0
    vertex -1.999999999999994 76.19335076986543 0
  endloop
endfacet
facet normal -0 0 1
  outer loop
    vertex -1.999999999999994 76.19335076986543 0
    vertex 0 71.11999999999996 0
    vertex 0 81.27999999999997 0
  endloop
endfacet
facet normal 0 -0 1
  outer loop
    vertex -1.999999999999992 54.99525054990387 0
    vertex 0 60.95999999999996 0
    vertex -1.999999999999993 65.59430065988462 0
  endloop
endfacet
facet normal -0 0 1
  outer loop
    vertex -1.999999999999993 65.59430065988462 0
    vertex 0 60.95999999999996 0
    vertex 0 71.11999999999996 0
  endloop
endfacet
facet normal 0 -0 1
  outer loop
    vertex -1.999999999999992 44.39620043992308 0
    vertex 0 50.79999999999995 0
    vertex -1.999999999999992 54.99525054990387 0
  endloop
endfacet
facet normal -0 0 1
  outer loop
    vertex -1.999999999999992 54.99525054990387 0
    vertex 0 50.79999999999995 0
    vertex 0 60.95999999999996 0
  endloop
endfacet
facet normal 0 -0 1
  outer loop
    vertex -1.999999999999992 33.79715032994233 0
    vertex 0 40.63999999999995 0
    vertex -1.999999999999992 44.39620043992308 0
  endloop
endfacet
facet normal -0 0 1
  outer loop
    vertex -1.999999999999992 44.39620043992308 0
    vertex 0 40.63999999999995 0
    vertex 0 50.79999999999995 0
  endloop
endfacet
facet normal 0 -0 1
  outer loop
    vertex -1.999999999999991 23.19810021996154 0
    vertex 0 30.47999999999997 0
    vertex -1.999999999999992 33.79715032994233 0
  endloop
endfacet
facet normal -0 0 1
  outer loop
    vertex -1.999999999999992 33.79715032994233 0
    vertex 0 30.47999999999997 0
    vertex 0 40.63999999999995 0
  endloop
endfacet
facet normal 0 -0 1
  outer loop
    vertex -1.99999999999999 12.59905010998077 0
    vertex 0 20.31999999999997 0
    vertex -1.999999999999991 23.19810021996154 0
  endloop
endfacet
facet normal -0 0 1
  outer loop
    vertex -1.999999999999991 23.19810021996154 0
    vertex 0 20.31999999999997 0
    vertex 0 30.47999999999997 0
  endloop
endfacet
facet normal 0 -0 1
  outer loop
    vertex 0 10.15999999999999 0
    vertex 0 20.31999999999997 0
    vertex -1.99999999999999 12.59905010998077 0
  endloop
endfacet
endsolid Created by Gmsh
