solid Created by Gmsh
facet normal -1 0 -0
  outer loop
    vertex 298.45 0 6.35
    vertex 298.45 0 0
    vertex 298.45 -19.57916666666671 0
  endloop
endfacet
facet normal -1 0 0
  outer loop
    vertex 298.45 -215.3708333333334 0
    vertex 298.45 -234.95 0
    vertex 298.45 -234.95 6.35
  endloop
endfacet
facet normal -1 0 0
  outer loop
    vertex 298.45 -215.3708333333334 0
    vertex 298.45 -234.95 6.35
    vertex 298.45 -215.3708333333334 6.35
  endloop
endfacet
facet normal -1 -0 0
  outer loop
    vertex 298.45 0 6.35
    vertex 298.45 -19.57916666666671 0
    vertex 298.45 -19.57916666666671 6.35
  endloop
endfacet
facet normal -1 0 -0
  outer loop
    vertex 298.45 -19.57916666666671 6.35
    vertex 298.45 -19.57916666666671 0
    vertex 298.45 -39.15833333333345 0
  endloop
endfacet
facet normal -1 0 -0
  outer loop
    vertex 298.45 -39.15833333333345 6.35
    vertex 298.45 -39.15833333333345 0
    vertex 298.45 -58.73750000000017 0
  endloop
endfacet
facet normal -1 -0 0
  outer loop
    vertex 298.45 -19.57916666666671 6.35
    vertex 298.45 -39.15833333333345 0
    vertex 298.45 -39.15833333333345 6.35
  endloop
endfacet
facet normal -1 0 -0
  outer loop
    vertex 298.45 -58.73750000000017 6.35
    vertex 298.45 -58.73750000000017 0
    vertex 298.45 -78.3166666666669 0
  endloop
endfacet
facet normal -1 -0 0
  outer loop
    vertex 298.45 -39.15833333333345 6.35
    vertex 298.45 -58.73750000000017 0
    vertex 298.45 -58.73750000000017 6.35
  endloop
endfacet
facet normal -1 0 -0
  outer loop
    vertex 298.45 -78.3166666666669 6.35
    vertex 298.45 -78.3166666666669 0
    vertex 298.45 -97.89583333333357 0
  endloop
endfacet
facet normal -1 -0 0
  outer loop
    vertex 298.45 -58.73750000000017 6.35
    vertex 298.45 -78.3166666666669 0
    vertex 298.45 -78.3166666666669 6.35
  endloop
endfacet
facet normal -1 0 -0
  outer loop
    vertex 298.45 -97.89583333333357 6.35
    vertex 298.45 -97.89583333333357 0
    vertex 298.45 -117.4750000000002 0
  endloop
endfacet
facet normal -1 -0 0
  outer loop
    vertex 298.45 -78.3166666666669 6.35
    vertex 298.45 -97.89583333333357 0
    vertex 298.45 -97.89583333333357 6.35
  endloop
endfacet
facet normal -1 0 0
  outer loop
    vertex 298.45 -137.0541666666668 0
    vertex 298.45 -117.4750000000002 6.35
    vertex 298.45 -117.4750000000002 0
  endloop
endfacet
facet normal -1 -0 0
  outer loop
    vertex 298.45 -97.89583333333357 6.35
    vertex 298.45 -117.4750000000002 0
    vertex 298.45 -117.4750000000002 6.35
  endloop
endfacet
facet normal -1 0 0
  outer loop
    vertex 298.45 -156.6333333333335 6.35
    vertex 298.45 -137.0541666666668 0
    vertex 298.45 -156.6333333333335 0
  endloop
endfacet
facet normal -1 0 0
  outer loop
    vertex 298.45 -137.0541666666668 6.35
    vertex 298.45 -117.4750000000002 6.35
    vertex 298.45 -137.0541666666668 0
  endloop
endfacet
facet normal -1 0 0
  outer loop
    vertex 298.45 -156.6333333333335 6.35
    vertex 298.45 -137.0541666666668 6.35
    vertex 298.45 -137.0541666666668 0
  endloop
endfacet
facet normal -1 0 -0
  outer loop
    vertex 298.45 -156.6333333333335 6.35
    vertex 298.45 -156.6333333333335 0
    vertex 298.45 -176.2125000000001 0
  endloop
endfacet
facet normal -1 0 -0
  outer loop
    vertex 298.45 -176.2125000000001 6.35
    vertex 298.45 -176.2125000000001 0
    vertex 298.45 -195.7916666666667 0
  endloop
endfacet
facet normal -1 -0 0
  outer loop
    vertex 298.45 -156.6333333333335 6.35
    vertex 298.45 -176.2125000000001 0
    vertex 298.45 -176.2125000000001 6.35
  endloop
endfacet
facet normal -1 0 0
  outer loop
    vertex 298.45 -215.3708333333334 6.35
    vertex 298.45 -195.7916666666667 0
    vertex 298.45 -215.3708333333334 0
  endloop
endfacet
facet normal -1 -0 0
  outer loop
    vertex 298.45 -176.2125000000001 6.35
    vertex 298.45 -195.7916666666667 0
    vertex 298.45 -195.7916666666667 6.35
  endloop
endfacet
facet normal -1 0 0
  outer loop
    vertex 298.45 -215.3708333333334 6.35
    vertex 298.45 -195.7916666666667 6.35
    vertex 298.45 -195.7916666666667 0
  endloop
endfacet
facet normal 0 -1 0
  outer loop
    vertex 278.5533333333333 0 0
    vertex 298.45 0 0
    vertex 298.45 0 6.35
  endloop
endfacet
facet normal 0 -1 0
  outer loop
    vertex 278.5533333333333 0 0
    vertex 298.45 0 6.35
    vertex 278.5533333333333 0 6.35
  endloop
endfacet
facet normal 0 -1 0
  outer loop
    vertex 0 0 6.35
    vertex 0 0 0
    vertex 19.89666666666669 0 6.35
  endloop
endfacet
facet normal 0 -1 0
  outer loop
    vertex 0 0 0
    vertex 19.89666666666669 0 0
    vertex 19.89666666666669 0 6.35
  endloop
endfacet
facet normal 0 -1 0
  outer loop
    vertex 19.89666666666669 0 0
    vertex 39.79333333333338 0 0
    vertex 39.79333333333338 0 6.35
  endloop
endfacet
facet normal 0 -1 0
  outer loop
    vertex 19.89666666666669 0 6.35
    vertex 19.89666666666669 0 0
    vertex 39.79333333333338 0 6.35
  endloop
endfacet
facet normal 0 -1 0
  outer loop
    vertex 39.79333333333338 0 0
    vertex 59.6900000000001 0 0
    vertex 59.6900000000001 0 6.35
  endloop
endfacet
facet normal 0 -1 0
  outer loop
    vertex 39.79333333333338 0 6.35
    vertex 39.79333333333338 0 0
    vertex 59.6900000000001 0 6.35
  endloop
endfacet
facet normal 0 -1 0
  outer loop
    vertex 59.6900000000001 0 6.35
    vertex 59.6900000000001 0 0
    vertex 79.5866666666668 0 0
  endloop
endfacet
facet normal 0 -1 0
  outer loop
    vertex 79.5866666666668 0 6.35
    vertex 79.5866666666668 0 0
    vertex 99.48333333333353 0 0
  endloop
endfacet
facet normal 0 -1 0
  outer loop
    vertex 59.6900000000001 0 6.35
    vertex 79.5866666666668 0 0
    vertex 79.5866666666668 0 6.35
  endloop
endfacet
facet normal 0 -1 0
  outer loop
    vertex 99.48333333333353 0 6.35
    vertex 99.48333333333353 0 0
    vertex 119.3800000000003 0 0
  endloop
endfacet
facet normal 0 -1 0
  outer loop
    vertex 79.5866666666668 0 6.35
    vertex 99.48333333333353 0 0
    vertex 99.48333333333353 0 6.35
  endloop
endfacet
facet normal 0 -1 0
  outer loop
    vertex 119.3800000000003 0 0
    vertex 139.276666666667 0 0
    vertex 139.276666666667 0 6.35
  endloop
endfacet
facet normal 0 -1 0
  outer loop
    vertex 99.48333333333353 0 6.35
    vertex 119.3800000000003 0 0
    vertex 119.3800000000003 0 6.35
  endloop
endfacet
facet normal 0 -1 0
  outer loop
    vertex 119.3800000000003 0 6.35
    vertex 119.3800000000003 0 0
    vertex 139.276666666667 0 6.35
  endloop
endfacet
facet normal 0 -1 0
  outer loop
    vertex 139.276666666667 0 6.35
    vertex 139.276666666667 0 0
    vertex 159.1733333333337 0 0
  endloop
endfacet
facet normal 0 -1 0
  outer loop
    vertex 159.1733333333337 0 6.35
    vertex 159.1733333333337 0 0
    vertex 179.0700000000002 0 0
  endloop
endfacet
facet normal 0 -1 0
  outer loop
    vertex 139.276666666667 0 6.35
    vertex 159.1733333333337 0 0
    vertex 159.1733333333337 0 6.35
  endloop
endfacet
facet normal 0 -1 0
  outer loop
    vertex 179.0700000000002 0 6.35
    vertex 179.0700000000002 0 0
    vertex 198.9666666666669 0 0
  endloop
endfacet
facet normal 0 -1 0
  outer loop
    vertex 159.1733333333337 0 6.35
    vertex 179.0700000000002 0 0
    vertex 179.0700000000002 0 6.35
  endloop
endfacet
facet normal 0 -1 0
  outer loop
    vertex 198.9666666666669 0 6.35
    vertex 198.9666666666669 0 0
    vertex 218.8633333333334 0 0
  endloop
endfacet
facet normal 0 -1 0
  outer loop
    vertex 179.0700000000002 0 6.35
    vertex 198.9666666666669 0 0
    vertex 198.9666666666669 0 6.35
  endloop
endfacet
facet normal 0 -1 0
  outer loop
    vertex 218.8633333333334 0 6.35
    vertex 218.8633333333334 0 0
    vertex 238.76 0 0
  endloop
endfacet
facet normal 0 -1 0
  outer loop
    vertex 198.9666666666669 0 6.35
    vertex 218.8633333333334 0 0
    vertex 218.8633333333334 0 6.35
  endloop
endfacet
facet normal 0 -1 0
  outer loop
    vertex 238.76 0 6.35
    vertex 238.76 0 0
    vertex 258.6566666666666 0 0
  endloop
endfacet
facet normal 0 -1 0
  outer loop
    vertex 218.8633333333334 0 6.35
    vertex 238.76 0 0
    vertex 238.76 0 6.35
  endloop
endfacet
facet normal 0 -1 -0
  outer loop
    vertex 278.5533333333333 0 6.35
    vertex 258.6566666666666 0 0
    vertex 278.5533333333333 0 0
  endloop
endfacet
facet normal 0 -1 0
  outer loop
    vertex 238.76 0 6.35
    vertex 258.6566666666666 0 0
    vertex 258.6566666666666 0 6.35
  endloop
endfacet
facet normal -0 -1 0
  outer loop
    vertex 278.5533333333333 0 6.35
    vertex 258.6566666666666 0 6.35
    vertex 258.6566666666666 0 0
  endloop
endfacet
facet normal 1 0 0
  outer loop
    vertex 0 -19.57916666666662 0
    vertex 0 0 0
    vertex 0 0 6.35
  endloop
endfacet
facet normal 1 0 0
  outer loop
    vertex 0 -19.57916666666662 0
    vertex 0 0 6.35
    vertex 0 -19.57916666666662 6.35
  endloop
endfacet
facet normal 1 0 0
  outer loop
    vertex 0 -234.95 6.35
    vertex 0 -234.95 0
    vertex 0 -215.3708333333333 0
  endloop
endfacet
facet normal 1 -0 0
  outer loop
    vertex 0 -234.95 6.35
    vertex 0 -215.3708333333333 0
    vertex 0 -215.3708333333333 6.35
  endloop
endfacet
facet normal 1 0 0
  outer loop
    vertex 0 -215.3708333333333 6.35
    vertex 0 -215.3708333333333 0
    vertex 0 -195.7916666666665 0
  endloop
endfacet
facet normal 1 0 0
  outer loop
    vertex 0 -195.7916666666665 6.35
    vertex 0 -195.7916666666665 0
    vertex 0 -176.2124999999998 0
  endloop
endfacet
facet normal 1 -0 0
  outer loop
    vertex 0 -215.3708333333333 6.35
    vertex 0 -195.7916666666665 0
    vertex 0 -195.7916666666665 6.35
  endloop
endfacet
facet normal 1 0 0
  outer loop
    vertex 0 -176.2124999999998 6.35
    vertex 0 -176.2124999999998 0
    vertex 0 -156.6333333333331 0
  endloop
endfacet
facet normal 1 -0 0
  outer loop
    vertex 0 -195.7916666666665 6.35
    vertex 0 -176.2124999999998 0
    vertex 0 -176.2124999999998 6.35
  endloop
endfacet
facet normal 1 0 0
  outer loop
    vertex 0 -156.6333333333331 0
    vertex 0 -137.0541666666664 0
    vertex 0 -137.0541666666664 6.35
  endloop
endfacet
facet normal 1 -0 0
  outer loop
    vertex 0 -176.2124999999998 6.35
    vertex 0 -156.6333333333331 0
    vertex 0 -156.6333333333331 6.35
  endloop
endfacet
facet normal 1 -0 0
  outer loop
    vertex 0 -156.6333333333331 6.35
    vertex 0 -156.6333333333331 0
    vertex 0 -137.0541666666664 6.35
  endloop
endfacet
facet normal 1 0 0
  outer loop
    vertex 0 -137.0541666666664 6.35
    vertex 0 -137.0541666666664 0
    vertex 0 -117.4749999999998 0
  endloop
endfacet
facet normal 1 0 0
  outer loop
    vertex 0 -97.89583333333317 0
    vertex 0 -117.4749999999998 6.35
    vertex 0 -117.4749999999998 0
  endloop
endfacet
facet normal 1 -0 0
  outer loop
    vertex 0 -137.0541666666664 6.35
    vertex 0 -117.4749999999998 0
    vertex 0 -117.4749999999998 6.35
  endloop
endfacet
facet normal 1 0 0
  outer loop
    vertex 0 -78.31666666666652 6.35
    vertex 0 -97.89583333333317 0
    vertex 0 -78.31666666666652 0
  endloop
endfacet
facet normal 1 0 0
  outer loop
    vertex 0 -97.89583333333317 6.35
    vertex 0 -117.4749999999998 6.35
    vertex 0 -97.89583333333317 0
  endloop
endfacet
facet normal 1 0 0
  outer loop
    vertex 0 -78.31666666666652 6.35
    vertex 0 -97.89583333333317 6.35
    vertex 0 -97.89583333333317 0
  endloop
endfacet
facet normal 1 0 0
  outer loop
    vertex 0 -78.31666666666652 6.35
    vertex 0 -78.31666666666652 0
    vertex 0 -58.7374999999999 0
  endloop
endfacet
facet normal 1 0 0
  outer loop
    vertex 0 -39.15833333333327 0
    vertex 0 -58.7374999999999 6.35
    vertex 0 -58.7374999999999 0
  endloop
endfacet
facet normal 1 -0 0
  outer loop
    vertex 0 -78.31666666666652 6.35
    vertex 0 -58.7374999999999 0
    vertex 0 -58.7374999999999 6.35
  endloop
endfacet
facet normal 1 0 0
  outer loop
    vertex 0 -19.57916666666662 6.35
    vertex 0 -39.15833333333327 0
    vertex 0 -19.57916666666662 0
  endloop
endfacet
facet normal 1 0 0
  outer loop
    vertex 0 -39.15833333333327 6.35
    vertex 0 -58.7374999999999 6.35
    vertex 0 -39.15833333333327 0
  endloop
endfacet
facet normal 1 0 0
  outer loop
    vertex 0 -19.57916666666662 6.35
    vertex 0 -39.15833333333327 6.35
    vertex 0 -39.15833333333327 0
  endloop
endfacet
facet normal 0 1 0
  outer loop
    vertex 298.45 -234.95 6.35
    vertex 298.45 -234.95 0
    vertex 278.5533333333333 -234.95 6.35
  endloop
endfacet
facet normal 0 1 0
  outer loop
    vertex 298.45 -234.95 0
    vertex 278.5533333333333 -234.95 0
    vertex 278.5533333333333 -234.95 6.35
  endloop
endfacet
facet normal 0 1 0
  outer loop
    vertex 19.8966666666667 -234.95 0
    vertex 0 -234.95 0
    vertex 0 -234.95 6.35
  endloop
endfacet
facet normal 0 1 0
  outer loop
    vertex 19.8966666666667 -234.95 6.35
    vertex 19.8966666666667 -234.95 0
    vertex 0 -234.95 6.35
  endloop
endfacet
facet normal 0 1 0
  outer loop
    vertex 278.5533333333333 -234.95 6.35
    vertex 278.5533333333333 -234.95 0
    vertex 258.6566666666666 -234.95 0
  endloop
endfacet
facet normal 0 1 0
  outer loop
    vertex 258.6566666666666 -234.95 6.35
    vertex 258.6566666666666 -234.95 0
    vertex 238.7599999999999 -234.95 0
  endloop
endfacet
facet normal 0 1 0
  outer loop
    vertex 278.5533333333333 -234.95 6.35
    vertex 258.6566666666666 -234.95 0
    vertex 258.6566666666666 -234.95 6.35
  endloop
endfacet
facet normal 0 1 0
  outer loop
    vertex 238.7599999999999 -234.95 6.35
    vertex 238.7599999999999 -234.95 0
    vertex 218.8633333333332 -234.95 0
  endloop
endfacet
facet normal 0 1 0
  outer loop
    vertex 258.6566666666666 -234.95 6.35
    vertex 238.7599999999999 -234.95 0
    vertex 238.7599999999999 -234.95 6.35
  endloop
endfacet
facet normal 0 1 0
  outer loop
    vertex 218.8633333333332 -234.95 6.35
    vertex 218.8633333333332 -234.95 0
    vertex 198.9666666666665 -234.95 0
  endloop
endfacet
facet normal 0 1 0
  outer loop
    vertex 238.7599999999999 -234.95 6.35
    vertex 218.8633333333332 -234.95 0
    vertex 218.8633333333332 -234.95 6.35
  endloop
endfacet
facet normal 0 1 0
  outer loop
    vertex 198.9666666666665 -234.95 6.35
    vertex 198.9666666666665 -234.95 0
    vertex 179.0699999999997 -234.95 0
  endloop
endfacet
facet normal 0 1 0
  outer loop
    vertex 218.8633333333332 -234.95 6.35
    vertex 198.9666666666665 -234.95 0
    vertex 198.9666666666665 -234.95 6.35
  endloop
endfacet
facet normal 0 1 0
  outer loop
    vertex 179.0699999999997 -234.95 0
    vertex 159.173333333333 -234.95 0
    vertex 159.173333333333 -234.95 6.35
  endloop
endfacet
facet normal 0 1 0
  outer loop
    vertex 198.9666666666665 -234.95 6.35
    vertex 179.0699999999997 -234.95 0
    vertex 179.0699999999997 -234.95 6.35
  endloop
endfacet
facet normal 0 1 0
  outer loop
    vertex 179.0699999999997 -234.95 6.35
    vertex 179.0699999999997 -234.95 0
    vertex 159.173333333333 -234.95 6.35
  endloop
endfacet
facet normal 0 1 0
  outer loop
    vertex 159.173333333333 -234.95 6.35
    vertex 159.173333333333 -234.95 0
    vertex 139.2766666666663 -234.95 0
  endloop
endfacet
facet normal 0 1 0
  outer loop
    vertex 139.2766666666663 -234.95 6.35
    vertex 139.2766666666663 -234.95 0
    vertex 119.3799999999997 -234.95 0
  endloop
endfacet
facet normal 0 1 0
  outer loop
    vertex 159.173333333333 -234.95 6.35
    vertex 139.2766666666663 -234.95 0
    vertex 139.2766666666663 -234.95 6.35
  endloop
endfacet
facet normal 0 1 0
  outer loop
    vertex 119.3799999999997 -234.95 6.35
    vertex 119.3799999999997 -234.95 0
    vertex 99.48333333333312 -234.95 0
  endloop
endfacet
facet normal 0 1 0
  outer loop
    vertex 139.2766666666663 -234.95 6.35
    vertex 119.3799999999997 -234.95 0
    vertex 119.3799999999997 -234.95 6.35
  endloop
endfacet
facet normal 0 1 0
  outer loop
    vertex 99.48333333333312 -234.95 0
    vertex 79.58666666666656 -234.95 0
    vertex 79.58666666666656 -234.95 6.35
  endloop
endfacet
facet normal 0 1 0
  outer loop
    vertex 119.3799999999997 -234.95 6.35
    vertex 99.48333333333312 -234.95 0
    vertex 99.48333333333312 -234.95 6.35
  endloop
endfacet
facet normal 0 1 0
  outer loop
    vertex 99.48333333333312 -234.95 6.35
    vertex 99.48333333333312 -234.95 0
    vertex 79.58666666666656 -234.95 6.35
  endloop
endfacet
facet normal 0 1 0
  outer loop
    vertex 79.58666666666656 -234.95 6.35
    vertex 79.58666666666656 -234.95 0
    vertex 59.69000000000003 -234.95 0
  endloop
endfacet
facet normal 0 1 0
  outer loop
    vertex 59.69000000000003 -234.95 6.35
    vertex 59.69000000000003 -234.95 0
    vertex 39.79333333333341 -234.95 0
  endloop
endfacet
facet normal 0 1 0
  outer loop
    vertex 79.58666666666656 -234.95 6.35
    vertex 59.69000000000003 -234.95 0
    vertex 59.69000000000003 -234.95 6.35
  endloop
endfacet
facet normal 0 1 0
  outer loop
    vertex 19.8966666666667 -234.95 6.35
    vertex 39.79333333333341 -234.95 0
    vertex 19.8966666666667 -234.95 0
  endloop
endfacet
facet normal 0 1 0
  outer loop
    vertex 59.69000000000003 -234.95 6.35
    vertex 39.79333333333341 -234.95 0
    vertex 39.79333333333341 -234.95 6.35
  endloop
endfacet
facet normal -0 1 0
  outer loop
    vertex 19.8966666666667 -234.95 6.35
    vertex 39.79333333333341 -234.95 6.35
    vertex 39.79333333333341 -234.95 0
  endloop
endfacet
facet normal -1 -0 0
  outer loop
    vertex -12.7 -227.6230769230769 6.35
    vertex -12.7 -247.65 0
    vertex -12.7 -247.65 6.35
  endloop
endfacet
facet normal -1 0 -0
  outer loop
    vertex -12.7 -227.6230769230769 6.35
    vertex -12.7 -227.6230769230769 0
    vertex -12.7 -247.65 0
  endloop
endfacet
facet normal -1 1.77397e-16 0
  outer loop
    vertex -12.7 12.7 6.35
    vertex -12.7 12.7 0
    vertex -12.7 -7.326923076923038 0
  endloop
endfacet
facet normal -1 1.77397e-16 7.94004e-31
  outer loop
    vertex -12.7 -7.326923076923066 6.35
    vertex -12.7 12.7 6.35
    vertex -12.7 -7.326923076923038 0
  endloop
endfacet
facet normal -1 0 0
  outer loop
    vertex -12.7 -227.6230769230769 6.35
    vertex -12.7 -207.5961538461538 0
    vertex -12.7 -227.6230769230769 0
  endloop
endfacet
facet normal -1 -8.86984e-17 -0
  outer loop
    vertex -12.7 -187.5692307692307 6.35
    vertex -12.7 -187.5692307692307 0
    vertex -12.7 -207.5961538461538 0
  endloop
endfacet
facet normal -1 -8.86984e-17 0
  outer loop
    vertex -12.7 -187.5692307692307 6.35
    vertex -12.7 -207.5961538461538 0
    vertex -12.7 -207.5961538461538 6.35
  endloop
endfacet
facet normal -1 0 0
  outer loop
    vertex -12.7 -227.6230769230769 6.35
    vertex -12.7 -207.5961538461538 6.35
    vertex -12.7 -207.5961538461538 0
  endloop
endfacet
facet normal -1 0 0
  outer loop
    vertex -12.7 -167.5423076923076 0
    vertex -12.7 -187.5692307692307 0
    vertex -12.7 -187.5692307692307 6.35
  endloop
endfacet
facet normal -1 0 0
  outer loop
    vertex -12.7 -147.5153846153844 0
    vertex -12.7 -167.5423076923076 0
    vertex -12.7 -167.5423076923076 6.35
  endloop
endfacet
facet normal -1 -0 0
  outer loop
    vertex -12.7 -167.5423076923076 6.35
    vertex -12.7 -167.5423076923076 0
    vertex -12.7 -187.5692307692307 6.35
  endloop
endfacet
facet normal -1 0 0
  outer loop
    vertex -12.7 -127.4884615384613 0
    vertex -12.7 -147.5153846153844 0
    vertex -12.7 -127.4884615384614 6.35
  endloop
endfacet
facet normal -1 -0 0
  outer loop
    vertex -12.7 -127.4884615384614 6.35
    vertex -12.7 -147.5153846153844 0
    vertex -12.7 -147.5153846153844 6.35
  endloop
endfacet
facet normal -1 -0 -0
  outer loop
    vertex -12.7 -147.5153846153844 6.35
    vertex -12.7 -147.5153846153844 0
    vertex -12.7 -167.5423076923076 6.35
  endloop
endfacet
facet normal -1 0 0
  outer loop
    vertex -12.7 -107.4615384615382 0
    vertex -12.7 -127.4884615384613 0
    vertex -12.7 -107.4615384615383 6.35
  endloop
endfacet
facet normal -1 -0 0
  outer loop
    vertex -12.7 -107.4615384615383 6.35
    vertex -12.7 -127.4884615384613 0
    vertex -12.7 -127.4884615384614 6.35
  endloop
endfacet
facet normal -1 -8.86984e-17 -2.77901e-30
  outer loop
    vertex -12.7 -87.43461538461509 0
    vertex -12.7 -107.4615384615382 0
    vertex -12.7 -87.43461538461528 6.35
  endloop
endfacet
facet normal -1 -8.86984e-17 -1.98501e-30
  outer loop
    vertex -12.7 -87.43461538461528 6.35
    vertex -12.7 -107.4615384615382 0
    vertex -12.7 -107.4615384615383 6.35
  endloop
endfacet
facet normal -1 0 0
  outer loop
    vertex -12.7 -67.40769230769209 0
    vertex -12.7 -87.43461538461509 0
    vertex -12.7 -67.40769230769226 6.35
  endloop
endfacet
facet normal -1 -0 0
  outer loop
    vertex -12.7 -67.40769230769226 6.35
    vertex -12.7 -87.43461538461509 0
    vertex -12.7 -87.43461538461528 6.35
  endloop
endfacet
facet normal -1 0 0
  outer loop
    vertex -12.7 -47.38076923076906 0
    vertex -12.7 -67.40769230769209 0
    vertex -12.7 -47.3807692307692 6.35
  endloop
endfacet
facet normal -1 -0 0
  outer loop
    vertex -12.7 -47.3807692307692 6.35
    vertex -12.7 -67.40769230769209 0
    vertex -12.7 -67.40769230769226 6.35
  endloop
endfacet
facet normal -1 0 0
  outer loop
    vertex -12.7 -27.35384615384606 0
    vertex -12.7 -47.38076923076906 0
    vertex -12.7 -27.35384615384612 6.35
  endloop
endfacet
facet normal -1 -0 0
  outer loop
    vertex -12.7 -27.35384615384612 6.35
    vertex -12.7 -47.38076923076906 0
    vertex -12.7 -47.3807692307692 6.35
  endloop
endfacet
facet normal -1 0 0
  outer loop
    vertex -12.7 -7.326923076923038 0
    vertex -12.7 -27.35384615384606 0
    vertex -12.7 -7.326923076923066 6.35
  endloop
endfacet
facet normal -1 -0 0
  outer loop
    vertex -12.7 -7.326923076923066 6.35
    vertex -12.7 -27.35384615384606 0
    vertex -12.7 -27.35384615384612 6.35
  endloop
endfacet
facet normal 0 1 0
  outer loop
    vertex 7.540624999999999 12.7 6.35
    vertex -12.7 12.7 0
    vertex -12.7 12.7 6.35
  endloop
endfacet
facet normal 0 1 0
  outer loop
    vertex 7.540624999999999 12.7 6.35
    vertex 7.540625000000016 12.7 0
    vertex -12.7 12.7 0
  endloop
endfacet
facet normal 0 1 0
  outer loop
    vertex 311.15 12.7 6.35
    vertex 311.15 12.7 0
    vertex 290.9093750000001 12.7 0
  endloop
endfacet
facet normal 0 1 0
  outer loop
    vertex 311.15 12.7 6.35
    vertex 290.9093750000001 12.7 0
    vertex 290.909375 12.7 6.35
  endloop
endfacet
facet normal 0 1 0
  outer loop
    vertex 27.78125000000003 12.7 0
    vertex 7.540625000000016 12.7 0
    vertex 27.78124999999996 12.7 6.35
  endloop
endfacet
facet normal 0 1 0
  outer loop
    vertex 27.78124999999996 12.7 6.35
    vertex 7.540625000000016 12.7 0
    vertex 7.540624999999999 12.7 6.35
  endloop
endfacet
facet normal 0 1 0
  outer loop
    vertex 48.02187499999997 12.7 6.35
    vertex 48.02187500000005 12.7 0
    vertex 27.78125000000003 12.7 0
  endloop
endfacet
facet normal 0 1 0
  outer loop
    vertex 48.02187499999997 12.7 6.35
    vertex 27.78125000000003 12.7 0
    vertex 27.78124999999996 12.7 6.35
  endloop
endfacet
facet normal 0 1 0
  outer loop
    vertex 68.26250000000007 12.7 0
    vertex 48.02187500000005 12.7 0
    vertex 68.26249999999992 12.7 6.35
  endloop
endfacet
facet normal 0 1 0
  outer loop
    vertex 68.26249999999992 12.7 6.35
    vertex 48.02187500000005 12.7 0
    vertex 48.02187499999997 12.7 6.35
  endloop
endfacet
facet normal 0 1 0
  outer loop
    vertex 88.50312499999993 12.7 6.35
    vertex 88.50312500000008 12.7 0
    vertex 68.26250000000007 12.7 0
  endloop
endfacet
facet normal 0 1 0
  outer loop
    vertex 88.50312499999993 12.7 6.35
    vertex 68.26250000000007 12.7 0
    vertex 68.26249999999992 12.7 6.35
  endloop
endfacet
facet normal 0 1 0
  outer loop
    vertex 108.7437500000001 12.7 0
    vertex 88.50312500000008 12.7 0
    vertex 108.7437499999999 12.7 6.35
  endloop
endfacet
facet normal 0 1 0
  outer loop
    vertex 108.7437499999999 12.7 6.35
    vertex 88.50312500000008 12.7 0
    vertex 88.50312499999993 12.7 6.35
  endloop
endfacet
facet normal 0 1 0
  outer loop
    vertex 128.9843750000002 12.7 0
    vertex 108.7437500000001 12.7 0
    vertex 128.9843749999999 12.7 6.35
  endloop
endfacet
facet normal 0 1 0
  outer loop
    vertex 128.9843749999999 12.7 6.35
    vertex 108.7437500000001 12.7 0
    vertex 108.7437499999999 12.7 6.35
  endloop
endfacet
facet normal 0 1 0
  outer loop
    vertex 149.2250000000002 12.7 0
    vertex 128.9843750000002 12.7 0
    vertex 149.2249999999999 12.7 6.35
  endloop
endfacet
facet normal 0 1 0
  outer loop
    vertex 149.2249999999999 12.7 6.35
    vertex 128.9843750000002 12.7 0
    vertex 128.9843749999999 12.7 6.35
  endloop
endfacet
facet normal 0 1 0
  outer loop
    vertex 169.4656250000002 12.7 0
    vertex 149.2250000000002 12.7 0
    vertex 169.4656249999999 12.7 6.35
  endloop
endfacet
facet normal 0 1 0
  outer loop
    vertex 169.4656249999999 12.7 6.35
    vertex 149.2250000000002 12.7 0
    vertex 149.2249999999999 12.7 6.35
  endloop
endfacet
facet normal 0 1 0
  outer loop
    vertex 189.7062500000002 12.7 0
    vertex 169.4656250000002 12.7 0
    vertex 189.7062499999999 12.7 6.35
  endloop
endfacet
facet normal 0 1 0
  outer loop
    vertex 189.7062499999999 12.7 6.35
    vertex 169.4656250000002 12.7 0
    vertex 169.4656249999999 12.7 6.35
  endloop
endfacet
facet normal 0 1 0
  outer loop
    vertex 209.9468749999999 12.7 6.35
    vertex 209.9468750000002 12.7 0
    vertex 189.7062500000002 12.7 0
  endloop
endfacet
facet normal 0 1 0
  outer loop
    vertex 209.9468749999999 12.7 6.35
    vertex 189.7062500000002 12.7 0
    vertex 189.7062499999999 12.7 6.35
  endloop
endfacet
facet normal 0 1 0
  outer loop
    vertex 230.1875000000002 12.7 0
    vertex 209.9468750000002 12.7 0
    vertex 230.1874999999999 12.7 6.35
  endloop
endfacet
facet normal 0 1 0
  outer loop
    vertex 230.1874999999999 12.7 6.35
    vertex 209.9468750000002 12.7 0
    vertex 209.9468749999999 12.7 6.35
  endloop
endfacet
facet normal 0 1 0
  outer loop
    vertex 250.4281250000001 12.7 0
    vertex 230.1875000000002 12.7 0
    vertex 250.428125 12.7 6.35
  endloop
endfacet
facet normal 0 1 0
  outer loop
    vertex 250.428125 12.7 6.35
    vertex 230.1875000000002 12.7 0
    vertex 230.1874999999999 12.7 6.35
  endloop
endfacet
facet normal 0 1 0
  outer loop
    vertex 270.6687500000001 12.7 0
    vertex 250.4281250000001 12.7 0
    vertex 270.66875 12.7 6.35
  endloop
endfacet
facet normal 0 1 0
  outer loop
    vertex 270.66875 12.7 6.35
    vertex 250.4281250000001 12.7 0
    vertex 250.428125 12.7 6.35
  endloop
endfacet
facet normal 0 1 0
  outer loop
    vertex 290.9093750000001 12.7 0
    vertex 270.6687500000001 12.7 0
    vertex 290.909375 12.7 6.35
  endloop
endfacet
facet normal 0 1 0
  outer loop
    vertex 290.909375 12.7 6.35
    vertex 270.6687500000001 12.7 0
    vertex 270.66875 12.7 6.35
  endloop
endfacet
facet normal 1 -0 0
  outer loop
    vertex 311.15 -7.326923076923098 6.35
    vertex 311.15 12.7 0
    vertex 311.15 12.7 6.35
  endloop
endfacet
facet normal 1 0 0
  outer loop
    vertex 311.15 -7.326923076923098 6.35
    vertex 311.15 -7.326923076923109 0
    vertex 311.15 12.7 0
  endloop
endfacet
facet normal 1 0 0
  outer loop
    vertex 311.15 -247.65 6.35
    vertex 311.15 -247.65 0
    vertex 311.15 -227.623076923077 0
  endloop
endfacet
facet normal 1 0 0
  outer loop
    vertex 311.15 -227.6230769230769 6.35
    vertex 311.15 -247.65 6.35
    vertex 311.15 -227.623076923077 0
  endloop
endfacet
facet normal 1 0 0
  outer loop
    vertex 311.15 -7.326923076923098 6.35
    vertex 311.15 -27.35384615384621 0
    vertex 311.15 -7.326923076923109 0
  endloop
endfacet
facet normal 1 0 0
  outer loop
    vertex 311.15 -47.38076923076932 6.35
    vertex 311.15 -47.38076923076932 0
    vertex 311.15 -27.35384615384621 0
  endloop
endfacet
facet normal 1 -0 0
  outer loop
    vertex 311.15 -47.38076923076932 6.35
    vertex 311.15 -27.35384615384621 0
    vertex 311.15 -27.35384615384623 6.35
  endloop
endfacet
facet normal 1 0 0
  outer loop
    vertex 311.15 -7.326923076923098 6.35
    vertex 311.15 -27.35384615384623 6.35
    vertex 311.15 -27.35384615384621 0
  endloop
endfacet
facet normal 1 0 0
  outer loop
    vertex 311.15 -67.4076923076924 0
    vertex 311.15 -47.38076923076932 0
    vertex 311.15 -47.38076923076932 6.35
  endloop
endfacet
facet normal 1 0 0
  outer loop
    vertex 311.15 -87.43461538461555 0
    vertex 311.15 -67.4076923076924 0
    vertex 311.15 -67.40769230769241 6.35
  endloop
endfacet
facet normal 1 -0 0
  outer loop
    vertex 311.15 -67.40769230769241 6.35
    vertex 311.15 -67.4076923076924 0
    vertex 311.15 -47.38076923076932 6.35
  endloop
endfacet
facet normal 1 0 0
  outer loop
    vertex 311.15 -107.4615384615387 0
    vertex 311.15 -87.43461538461555 0
    vertex 311.15 -107.4615384615386 6.35
  endloop
endfacet
facet normal 1 -0 0
  outer loop
    vertex 311.15 -107.4615384615386 6.35
    vertex 311.15 -87.43461538461555 0
    vertex 311.15 -87.43461538461551 6.35
  endloop
endfacet
facet normal 1 -0 0
  outer loop
    vertex 311.15 -87.43461538461551 6.35
    vertex 311.15 -87.43461538461555 0
    vertex 311.15 -67.40769230769241 6.35
  endloop
endfacet
facet normal 1 0 0
  outer loop
    vertex 311.15 -127.4884615384618 0
    vertex 311.15 -107.4615384615387 0
    vertex 311.15 -127.4884615384616 6.35
  endloop
endfacet
facet normal 1 -0 0
  outer loop
    vertex 311.15 -127.4884615384616 6.35
    vertex 311.15 -107.4615384615387 0
    vertex 311.15 -107.4615384615386 6.35
  endloop
endfacet
facet normal 1 0 0
  outer loop
    vertex 311.15 -147.5153846153847 6.35
    vertex 311.15 -147.5153846153849 0
    vertex 311.15 -127.4884615384618 0
  endloop
endfacet
facet normal 1 -0 0
  outer loop
    vertex 311.15 -147.5153846153847 6.35
    vertex 311.15 -127.4884615384618 0
    vertex 311.15 -127.4884615384616 6.35
  endloop
endfacet
facet normal 1 0 0
  outer loop
    vertex 311.15 -167.5423076923079 0
    vertex 311.15 -147.5153846153849 0
    vertex 311.15 -167.5423076923077 6.35
  endloop
endfacet
facet normal 1 -0 0
  outer loop
    vertex 311.15 -167.5423076923077 6.35
    vertex 311.15 -147.5153846153849 0
    vertex 311.15 -147.5153846153847 6.35
  endloop
endfacet
facet normal 1 0 0
  outer loop
    vertex 311.15 -187.5692307692309 0
    vertex 311.15 -167.5423076923079 0
    vertex 311.15 -187.5692307692308 6.35
  endloop
endfacet
facet normal 1 -0 0
  outer loop
    vertex 311.15 -187.5692307692308 6.35
    vertex 311.15 -167.5423076923079 0
    vertex 311.15 -167.5423076923077 6.35
  endloop
endfacet
facet normal 1 0 0
  outer loop
    vertex 311.15 -207.5961538461539 0
    vertex 311.15 -187.5692307692309 0
    vertex 311.15 -207.5961538461539 6.35
  endloop
endfacet
facet normal 1 -0 0
  outer loop
    vertex 311.15 -207.5961538461539 6.35
    vertex 311.15 -187.5692307692309 0
    vertex 311.15 -187.5692307692308 6.35
  endloop
endfacet
facet normal 1 0 0
  outer loop
    vertex 311.15 -227.623076923077 0
    vertex 311.15 -207.5961538461539 0
    vertex 311.15 -227.6230769230769 6.35
  endloop
endfacet
facet normal 1 -0 0
  outer loop
    vertex 311.15 -227.6230769230769 6.35
    vertex 311.15 -207.5961538461539 0
    vertex 311.15 -207.5961538461539 6.35
  endloop
endfacet
facet normal 0 -1 0
  outer loop
    vertex -12.7 -247.65 6.35
    vertex -12.7 -247.65 0
    vertex 7.54062499999992 -247.65 0
  endloop
endfacet
facet normal -0 -1 0
  outer loop
    vertex 7.540625000000034 -247.65 6.35
    vertex -12.7 -247.65 6.35
    vertex 7.54062499999992 -247.65 0
  endloop
endfacet
facet normal 0 -1 0
  outer loop
    vertex 290.909375 -247.65 6.35
    vertex 311.15 -247.65 0
    vertex 311.15 -247.65 6.35
  endloop
endfacet
facet normal 0 -1 0
  outer loop
    vertex 290.909375 -247.65 6.35
    vertex 290.909375 -247.65 0
    vertex 311.15 -247.65 0
  endloop
endfacet
facet normal 0 -1 0
  outer loop
    vertex 270.6687499999999 -247.65 0
    vertex 290.909375 -247.65 0
    vertex 270.66875 -247.65 6.35
  endloop
endfacet
facet normal 0 -1 0
  outer loop
    vertex 270.66875 -247.65 6.35
    vertex 290.909375 -247.65 0
    vertex 290.909375 -247.65 6.35
  endloop
endfacet
facet normal 0 -1 0
  outer loop
    vertex 250.4281249999999 -247.65 0
    vertex 270.6687499999999 -247.65 0
    vertex 250.428125 -247.65 6.35
  endloop
endfacet
facet normal 0 -1 0
  outer loop
    vertex 250.428125 -247.65 6.35
    vertex 270.6687499999999 -247.65 0
    vertex 270.66875 -247.65 6.35
  endloop
endfacet
facet normal 0 -1 0
  outer loop
    vertex 230.1874999999999 -247.65 0
    vertex 250.4281249999999 -247.65 0
    vertex 230.1875000000001 -247.65 6.35
  endloop
endfacet
facet normal 0 -1 0
  outer loop
    vertex 230.1875000000001 -247.65 6.35
    vertex 250.4281249999999 -247.65 0
    vertex 250.428125 -247.65 6.35
  endloop
endfacet
facet normal 0 -1 0
  outer loop
    vertex 209.9468749999999 -247.65 0
    vertex 230.1874999999999 -247.65 0
    vertex 209.946875 -247.65 6.35
  endloop
endfacet
facet normal 0 -1 0
  outer loop
    vertex 209.946875 -247.65 6.35
    vertex 230.1874999999999 -247.65 0
    vertex 230.1875000000001 -247.65 6.35
  endloop
endfacet
facet normal 0 -1 0
  outer loop
    vertex 189.7062499999998 -247.65 0
    vertex 209.9468749999999 -247.65 0
    vertex 189.7062500000001 -247.65 6.35
  endloop
endfacet
facet normal 0 -1 0
  outer loop
    vertex 189.7062500000001 -247.65 6.35
    vertex 209.9468749999999 -247.65 0
    vertex 209.946875 -247.65 6.35
  endloop
endfacet
facet normal 0 -1 0
  outer loop
    vertex 169.4656249999998 -247.65 0
    vertex 189.7062499999998 -247.65 0
    vertex 169.4656250000001 -247.65 6.35
  endloop
endfacet
facet normal 0 -1 0
  outer loop
    vertex 169.4656250000001 -247.65 6.35
    vertex 189.7062499999998 -247.65 0
    vertex 189.7062500000001 -247.65 6.35
  endloop
endfacet
facet normal 0 -1 -0
  outer loop
    vertex 149.2250000000001 -247.65 6.35
    vertex 149.2249999999998 -247.65 0
    vertex 169.4656249999998 -247.65 0
  endloop
endfacet
facet normal 0 -1 0
  outer loop
    vertex 149.2250000000001 -247.65 6.35
    vertex 169.4656249999998 -247.65 0
    vertex 169.4656250000001 -247.65 6.35
  endloop
endfacet
facet normal 0 -1 0
  outer loop
    vertex 128.9843749999998 -247.65 0
    vertex 149.2249999999998 -247.65 0
    vertex 128.9843750000001 -247.65 6.35
  endloop
endfacet
facet normal 0 -1 0
  outer loop
    vertex 128.9843750000001 -247.65 6.35
    vertex 149.2249999999998 -247.65 0
    vertex 149.2250000000001 -247.65 6.35
  endloop
endfacet
facet normal 0 -1 0
  outer loop
    vertex 108.7437499999998 -247.65 0
    vertex 128.9843749999998 -247.65 0
    vertex 108.7437500000001 -247.65 6.35
  endloop
endfacet
facet normal 0 -1 0
  outer loop
    vertex 108.7437500000001 -247.65 6.35
    vertex 128.9843749999998 -247.65 0
    vertex 128.9843750000001 -247.65 6.35
  endloop
endfacet
facet normal 0 -1 0
  outer loop
    vertex 88.50312499999981 -247.65 0
    vertex 108.7437499999998 -247.65 0
    vertex 88.5031250000001 -247.65 6.35
  endloop
endfacet
facet normal 0 -1 0
  outer loop
    vertex 88.5031250000001 -247.65 6.35
    vertex 108.7437499999998 -247.65 0
    vertex 108.7437500000001 -247.65 6.35
  endloop
endfacet
facet normal 0 -1 0
  outer loop
    vertex 68.26249999999982 -247.65 0
    vertex 88.50312499999981 -247.65 0
    vertex 68.26250000000007 -247.65 6.35
  endloop
endfacet
facet normal 0 -1 0
  outer loop
    vertex 68.26250000000007 -247.65 6.35
    vertex 88.50312499999981 -247.65 0
    vertex 88.5031250000001 -247.65 6.35
  endloop
endfacet
facet normal 0 -1 0
  outer loop
    vertex 48.02187499999985 -247.65 0
    vertex 68.26249999999982 -247.65 0
    vertex 48.02187500000002 -247.65 6.35
  endloop
endfacet
facet normal 0 -1 0
  outer loop
    vertex 48.02187500000002 -247.65 6.35
    vertex 68.26249999999982 -247.65 0
    vertex 68.26250000000007 -247.65 6.35
  endloop
endfacet
facet normal 0 -1 0
  outer loop
    vertex 27.78124999999989 -247.65 0
    vertex 48.02187499999985 -247.65 0
    vertex 27.78125 -247.65 6.35
  endloop
endfacet
facet normal 0 -1 0
  outer loop
    vertex 27.78125 -247.65 6.35
    vertex 48.02187499999985 -247.65 0
    vertex 48.02187500000002 -247.65 6.35
  endloop
endfacet
facet normal 0 -1 0
  outer loop
    vertex 7.54062499999992 -247.65 0
    vertex 27.78124999999989 -247.65 0
    vertex 7.540625000000034 -247.65 6.35
  endloop
endfacet
facet normal 0 -1 0
  outer loop
    vertex 7.540625000000034 -247.65 6.35
    vertex 27.78124999999989 -247.65 0
    vertex 27.78125 -247.65 6.35
  endloop
endfacet
facet normal 0 0 1
  outer loop
    vertex 290.909375 12.7 6.35
    vertex 270.66875 12.7 6.35
    vertex 278.5533333333333 0 6.35
  endloop
endfacet
facet normal 0 -0 1
  outer loop
    vertex 19.89666666666669 0 6.35
    vertex 27.78124999999996 12.7 6.35
    vertex 7.540624999999999 12.7 6.35
  endloop
endfacet
facet normal 0 0 1
  outer loop
    vertex 19.8966666666667 -234.95 6.35
    vertex 7.540625000000034 -247.65 6.35
    vertex 27.78125 -247.65 6.35
  endloop
endfacet
facet normal 0 0 1
  outer loop
    vertex 278.5533333333333 -234.95 6.35
    vertex 270.66875 -247.65 6.35
    vertex 290.909375 -247.65 6.35
  endloop
endfacet
facet normal -0 0 1
  outer loop
    vertex 298.45 -215.3708333333334 6.35
    vertex 311.15 -227.6230769230769 6.35
    vertex 311.15 -207.5961538461539 6.35
  endloop
endfacet
facet normal 0 0 1
  outer loop
    vertex 0 -215.3708333333333 6.35
    vertex -12.7 -207.5961538461538 6.35
    vertex -12.7 -227.6230769230769 6.35
  endloop
endfacet
facet normal 0 0 1
  outer loop
    vertex 0 -19.57916666666662 6.35
    vertex -12.7 -7.326923076923066 6.35
    vertex -12.7 -27.35384615384612 6.35
  endloop
endfacet
facet normal -0 0 1
  outer loop
    vertex 298.45 -19.57916666666671 6.35
    vertex 311.15 -27.35384615384623 6.35
    vertex 311.15 -7.326923076923098 6.35
  endloop
endfacet
facet normal -0 0 1
  outer loop
    vertex 278.5533333333333 -234.95 6.35
    vertex 290.909375 -247.65 6.35
    vertex 298.45 -234.95 6.35
  endloop
endfacet
facet normal -0 0 1
  outer loop
    vertex 0 -234.95 6.35
    vertex 7.540625000000034 -247.65 6.35
    vertex 19.8966666666667 -234.95 6.35
  endloop
endfacet
facet normal 0 0 1
  outer loop
    vertex 19.89666666666669 0 6.35
    vertex 7.540624999999999 12.7 6.35
    vertex 0 0 6.35
  endloop
endfacet
facet normal 0 0 1
  outer loop
    vertex 298.45 0 6.35
    vertex 290.909375 12.7 6.35
    vertex 278.5533333333333 0 6.35
  endloop
endfacet
facet normal 0 0 1
  outer loop
    vertex 298.45 -19.57916666666671 6.35
    vertex 311.15 -7.326923076923098 6.35
    vertex 298.45 0 6.35
  endloop
endfacet
facet normal 0 0 1
  outer loop
    vertex 0 -215.3708333333333 6.35
    vertex -12.7 -227.6230769230769 6.35
    vertex 0 -234.95 6.35
  endloop
endfacet
facet normal 0 0 1
  outer loop
    vertex 298.45 -234.95 6.35
    vertex 311.15 -227.6230769230769 6.35
    vertex 298.45 -215.3708333333334 6.35
  endloop
endfacet
facet normal 0 0 1
  outer loop
    vertex 0 0 6.35
    vertex -12.7 -7.326923076923066 6.35
    vertex 0 -19.57916666666662 6.35
  endloop
endfacet
facet normal 0 0 1
  outer loop
    vertex 250.428125 -247.65 6.35
    vertex 270.66875 -247.65 6.35
    vertex 258.6566666666666 -234.95 6.35
  endloop
endfacet
facet normal 0 0 1
  outer loop
    vertex 27.78125 -247.65 6.35
    vertex 48.02187500000002 -247.65 6.35
    vertex 39.79333333333341 -234.95 6.35
  endloop
endfacet
facet normal 0 -0 1
  outer loop
    vertex 39.79333333333338 0 6.35
    vertex 48.02187499999997 12.7 6.35
    vertex 27.78124999999996 12.7 6.35
  endloop
endfacet
facet normal 0 -0 1
  outer loop
    vertex 258.6566666666666 0 6.35
    vertex 270.66875 12.7 6.35
    vertex 250.428125 12.7 6.35
  endloop
endfacet
facet normal -0 0 1
  outer loop
    vertex 298.45 -39.15833333333345 6.35
    vertex 311.15 -47.38076923076932 6.35
    vertex 311.15 -27.35384615384623 6.35
  endloop
endfacet
facet normal -0 0 1
  outer loop
    vertex 298.45 -195.7916666666667 6.35
    vertex 311.15 -207.5961538461539 6.35
    vertex 311.15 -187.5692307692308 6.35
  endloop
endfacet
facet normal 0 0 1
  outer loop
    vertex 0 -195.7916666666665 6.35
    vertex -12.7 -187.5692307692307 6.35
    vertex -12.7 -207.5961538461538 6.35
  endloop
endfacet
facet normal 0 0 1
  outer loop
    vertex -12.7 -47.3807692307692 6.35
    vertex 0 -39.15833333333327 6.35
    vertex -12.7 -27.35384615384612 6.35
  endloop
endfacet
facet normal 0 0 1
  outer loop
    vertex 278.5533333333333 0 6.35
    vertex 270.66875 12.7 6.35
    vertex 258.6566666666666 0 6.35
  endloop
endfacet
facet normal 0 0 1
  outer loop
    vertex 39.79333333333338 0 6.35
    vertex 27.78124999999996 12.7 6.35
    vertex 19.89666666666669 0 6.35
  endloop
endfacet
facet normal -0 0 1
  outer loop
    vertex 258.6566666666666 -234.95 6.35
    vertex 270.66875 -247.65 6.35
    vertex 278.5533333333333 -234.95 6.35
  endloop
endfacet
facet normal 0 -0 1
  outer loop
    vertex 27.78125 -247.65 6.35
    vertex 39.79333333333341 -234.95 6.35
    vertex 19.8966666666667 -234.95 6.35
  endloop
endfacet
facet normal 0 -0 1
  outer loop
    vertex 59.6900000000001 0 6.35
    vertex 68.26249999999992 12.7 6.35
    vertex 48.02187499999997 12.7 6.35
  endloop
endfacet
facet normal 0 0 1
  outer loop
    vertex 238.7599999999999 -234.95 6.35
    vertex 230.1875000000001 -247.65 6.35
    vertex 250.428125 -247.65 6.35
  endloop
endfacet
facet normal 0 0 1
  outer loop
    vertex 68.26250000000007 -247.65 6.35
    vertex 59.69000000000003 -234.95 6.35
    vertex 48.02187500000002 -247.65 6.35
  endloop
endfacet
facet normal 0 -0 1
  outer loop
    vertex 238.76 0 6.35
    vertex 250.428125 12.7 6.35
    vertex 230.1874999999999 12.7 6.35
  endloop
endfacet
facet normal 0 0 1
  outer loop
    vertex 298.45 -39.15833333333345 6.35
    vertex 311.15 -27.35384615384623 6.35
    vertex 298.45 -19.57916666666671 6.35
  endloop
endfacet
facet normal 0 0 1
  outer loop
    vertex 0 -195.7916666666665 6.35
    vertex -12.7 -207.5961538461538 6.35
    vertex 0 -215.3708333333333 6.35
  endloop
endfacet
facet normal 0 0 1
  outer loop
    vertex 298.45 -215.3708333333334 6.35
    vertex 311.15 -207.5961538461539 6.35
    vertex 298.45 -195.7916666666667 6.35
  endloop
endfacet
facet normal -0 0 1
  outer loop
    vertex -12.7 -27.35384615384612 6.35
    vertex 0 -39.15833333333327 6.35
    vertex 0 -19.57916666666662 6.35
  endloop
endfacet
facet normal -0 0 1
  outer loop
    vertex 238.7599999999999 -234.95 6.35
    vertex 250.428125 -247.65 6.35
    vertex 258.6566666666666 -234.95 6.35
  endloop
endfacet
facet normal 0 0 1
  outer loop
    vertex 59.6900000000001 0 6.35
    vertex 48.02187499999997 12.7 6.35
    vertex 39.79333333333338 0 6.35
  endloop
endfacet
facet normal 0 0 1
  outer loop
    vertex 258.6566666666666 0 6.35
    vertex 250.428125 12.7 6.35
    vertex 238.76 0 6.35
  endloop
endfacet
facet normal 0 -0 1
  outer loop
    vertex 48.02187500000002 -247.65 6.35
    vertex 59.69000000000003 -234.95 6.35
    vertex 39.79333333333341 -234.95 6.35
  endloop
endfacet
facet normal -0 0 1
  outer loop
    vertex 298.45 -58.73750000000017 6.35
    vertex 311.15 -67.40769230769241 6.35
    vertex 311.15 -47.38076923076932 6.35
  endloop
endfacet
facet normal 0 0 1
  outer loop
    vertex 0 -176.2124999999998 6.35
    vertex -12.7 -167.5423076923076 6.35
    vertex -12.7 -187.5692307692307 6.35
  endloop
endfacet
facet normal -0 0 1
  outer loop
    vertex 298.45 -176.2125000000001 6.35
    vertex 311.15 -187.5692307692308 6.35
    vertex 311.15 -167.5423076923077 6.35
  endloop
endfacet
facet normal 0 0 1
  outer loop
    vertex -12.7 -67.40769230769226 6.35
    vertex 0 -58.7374999999999 6.35
    vertex -12.7 -47.3807692307692 6.35
  endloop
endfacet
facet normal 0 0 1
  outer loop
    vertex 88.50312499999993 12.7 6.35
    vertex 68.26249999999992 12.7 6.35
    vertex 79.5866666666668 0 6.35
  endloop
endfacet
facet normal 0 0 1
  outer loop
    vertex 218.8633333333332 -234.95 6.35
    vertex 209.946875 -247.65 6.35
    vertex 230.1875000000001 -247.65 6.35
  endloop
endfacet
facet normal 0 0 1
  outer loop
    vertex 68.26250000000007 -247.65 6.35
    vertex 88.5031250000001 -247.65 6.35
    vertex 79.58666666666656 -234.95 6.35
  endloop
endfacet
facet normal 0 -0 1
  outer loop
    vertex 218.8633333333334 0 6.35
    vertex 230.1874999999999 12.7 6.35
    vertex 209.9468749999999 12.7 6.35
  endloop
endfacet
facet normal 0 0 1
  outer loop
    vertex 0 -176.2124999999998 6.35
    vertex -12.7 -187.5692307692307 6.35
    vertex 0 -195.7916666666665 6.35
  endloop
endfacet
facet normal 0 0 1
  outer loop
    vertex 298.45 -58.73750000000017 6.35
    vertex 311.15 -47.38076923076932 6.35
    vertex 298.45 -39.15833333333345 6.35
  endloop
endfacet
facet normal -0 0 1
  outer loop
    vertex -12.7 -47.3807692307692 6.35
    vertex 0 -58.7374999999999 6.35
    vertex 0 -39.15833333333327 6.35
  endloop
endfacet
facet normal 0 0 1
  outer loop
    vertex 298.45 -195.7916666666667 6.35
    vertex 311.15 -187.5692307692308 6.35
    vertex 298.45 -176.2125000000001 6.35
  endloop
endfacet
facet normal -0 0 1
  outer loop
    vertex 218.8633333333332 -234.95 6.35
    vertex 230.1875000000001 -247.65 6.35
    vertex 238.7599999999999 -234.95 6.35
  endloop
endfacet
facet normal 0 0 1
  outer loop
    vertex 79.5866666666668 0 6.35
    vertex 68.26249999999992 12.7 6.35
    vertex 59.6900000000001 0 6.35
  endloop
endfacet
facet normal 0 0 1
  outer loop
    vertex 79.58666666666656 -234.95 6.35
    vertex 59.69000000000003 -234.95 6.35
    vertex 68.26250000000007 -247.65 6.35
  endloop
endfacet
facet normal 0 0 1
  outer loop
    vertex 238.76 0 6.35
    vertex 230.1874999999999 12.7 6.35
    vertex 218.8633333333334 0 6.35
  endloop
endfacet
facet normal 0 -0 1
  outer loop
    vertex 99.48333333333353 0 6.35
    vertex 108.7437499999999 12.7 6.35
    vertex 88.50312499999993 12.7 6.35
  endloop
endfacet
facet normal 0 0 1
  outer loop
    vertex 198.9666666666665 -234.95 6.35
    vertex 189.7062500000001 -247.65 6.35
    vertex 209.946875 -247.65 6.35
  endloop
endfacet
facet normal 0 0 1
  outer loop
    vertex 99.48333333333312 -234.95 6.35
    vertex 88.5031250000001 -247.65 6.35
    vertex 108.7437500000001 -247.65 6.35
  endloop
endfacet
facet normal -0 0 1
  outer loop
    vertex 189.7062499999999 12.7 6.35
    vertex 198.9666666666669 0 6.35
    vertex 209.9468749999999 12.7 6.35
  endloop
endfacet
facet normal 0 0 1
  outer loop
    vertex 0 -156.6333333333331 6.35
    vertex -12.7 -147.5153846153844 6.35
    vertex -12.7 -167.5423076923076 6.35
  endloop
endfacet
facet normal -0 0 1
  outer loop
    vertex 298.45 -78.3166666666669 6.35
    vertex 311.15 -87.43461538461551 6.35
    vertex 311.15 -67.40769230769241 6.35
  endloop
endfacet
facet normal 0 -0 1
  outer loop
    vertex 311.15 -167.5423076923077 6.35
    vertex 311.15 -147.5153846153847 6.35
    vertex 298.45 -156.6333333333335 6.35
  endloop
endfacet
facet normal 0 0 1
  outer loop
    vertex 0 -78.31666666666652 6.35
    vertex -12.7 -67.40769230769226 6.35
    vertex -12.7 -87.43461538461528 6.35
  endloop
endfacet
facet normal 0 0 1
  outer loop
    vertex 290.909375 -247.65 6.35
    vertex 311.15 -247.65 6.35
    vertex 298.45 -234.95 6.35
  endloop
endfacet
facet normal 0 0 1
  outer loop
    vertex -12.7 -247.65 6.35
    vertex 7.540625000000034 -247.65 6.35
    vertex 0 -234.95 6.35
  endloop
endfacet
facet normal 0 -0 1
  outer loop
    vertex 298.45 0 6.35
    vertex 311.15 12.7 6.35
    vertex 290.909375 12.7 6.35
  endloop
endfacet
facet normal 0 -0 1
  outer loop
    vertex 0 0 6.35
    vertex 7.540624999999999 12.7 6.35
    vertex -12.7 12.7 6.35
  endloop
endfacet
facet normal 0 0 1
  outer loop
    vertex 99.48333333333353 0 6.35
    vertex 88.50312499999993 12.7 6.35
    vertex 79.5866666666668 0 6.35
  endloop
endfacet
facet normal -0 0 1
  outer loop
    vertex 198.9666666666665 -234.95 6.35
    vertex 209.946875 -247.65 6.35
    vertex 218.8633333333332 -234.95 6.35
  endloop
endfacet
facet normal -0 0 1
  outer loop
    vertex 79.58666666666656 -234.95 6.35
    vertex 88.5031250000001 -247.65 6.35
    vertex 99.48333333333312 -234.95 6.35
  endloop
endfacet
facet normal 0 0 1
  outer loop
    vertex 209.9468749999999 12.7 6.35
    vertex 198.9666666666669 0 6.35
    vertex 218.8633333333334 0 6.35
  endloop
endfacet
facet normal -0 0 1
  outer loop
    vertex 298.45 -234.95 6.35
    vertex 311.15 -247.65 6.35
    vertex 311.15 -227.6230769230769 6.35
  endloop
endfacet
facet normal 0 -0 1
  outer loop
    vertex 311.15 -7.326923076923098 6.35
    vertex 311.15 12.7 6.35
    vertex 298.45 0 6.35
  endloop
endfacet
facet normal 0 0 1
  outer loop
    vertex -12.7 12.7 6.35
    vertex -12.7 -7.326923076923066 6.35
    vertex 0 0 6.35
  endloop
endfacet
facet normal 0 0 1
  outer loop
    vertex -12.7 -227.6230769230769 6.35
    vertex -12.7 -247.65 6.35
    vertex 0 -234.95 6.35
  endloop
endfacet
facet normal 0 0 1
  outer loop
    vertex 298.45 -78.3166666666669 6.35
    vertex 311.15 -67.40769230769241 6.35
    vertex 298.45 -58.73750000000017 6.35
  endloop
endfacet
facet normal 0 0 1
  outer loop
    vertex 0 -156.6333333333331 6.35
    vertex -12.7 -167.5423076923076 6.35
    vertex 0 -176.2124999999998 6.35
  endloop
endfacet
facet normal 0 -0 1
  outer loop
    vertex 0 -78.31666666666652 6.35
    vertex 0 -58.7374999999999 6.35
    vertex -12.7 -67.40769230769226 6.35
  endloop
endfacet
facet normal 0 0 1
  outer loop
    vertex 298.45 -176.2125000000001 6.35
    vertex 311.15 -167.5423076923077 6.35
    vertex 298.45 -156.6333333333335 6.35
  endloop
endfacet
facet normal 0 0 1
  outer loop
    vertex 179.0699999999997 -234.95 6.35
    vertex 169.4656250000001 -247.65 6.35
    vertex 189.7062500000001 -247.65 6.35
  endloop
endfacet
facet normal 0 -0 1
  outer loop
    vertex 119.3800000000003 0 6.35
    vertex 128.9843749999999 12.7 6.35
    vertex 108.7437499999999 12.7 6.35
  endloop
endfacet
facet normal 0 0 1
  outer loop
    vertex 119.3799999999997 -234.95 6.35
    vertex 108.7437500000001 -247.65 6.35
    vertex 128.9843750000001 -247.65 6.35
  endloop
endfacet
facet normal -0 0 1
  outer loop
    vertex 169.4656249999999 12.7 6.35
    vertex 179.0700000000002 0 6.35
    vertex 189.7062499999999 12.7 6.35
  endloop
endfacet
facet normal 0 0 1
  outer loop
    vertex 0 -137.0541666666664 6.35
    vertex -12.7 -127.4884615384614 6.35
    vertex -12.7 -147.5153846153844 6.35
  endloop
endfacet
facet normal -0 0 1
  outer loop
    vertex 298.45 -97.89583333333357 6.35
    vertex 311.15 -107.4615384615386 6.35
    vertex 311.15 -87.43461538461551 6.35
  endloop
endfacet
facet normal -0 0 1
  outer loop
    vertex 298.45 -137.0541666666668 6.35
    vertex 311.15 -147.5153846153847 6.35
    vertex 311.15 -127.4884615384616 6.35
  endloop
endfacet
facet normal 0 0 1
  outer loop
    vertex 0 -97.89583333333317 6.35
    vertex -12.7 -87.43461538461528 6.35
    vertex -12.7 -107.4615384615383 6.35
  endloop
endfacet
facet normal 0 0 1
  outer loop
    vertex 119.3800000000003 0 6.35
    vertex 108.7437499999999 12.7 6.35
    vertex 99.48333333333353 0 6.35
  endloop
endfacet
facet normal 0 0 1
  outer loop
    vertex 198.9666666666665 -234.95 6.35
    vertex 179.0699999999997 -234.95 6.35
    vertex 189.7062500000001 -247.65 6.35
  endloop
endfacet
facet normal -0 0 1
  outer loop
    vertex 99.48333333333312 -234.95 6.35
    vertex 108.7437500000001 -247.65 6.35
    vertex 119.3799999999997 -234.95 6.35
  endloop
endfacet
facet normal 0 0 1
  outer loop
    vertex 189.7062499999999 12.7 6.35
    vertex 179.0700000000002 0 6.35
    vertex 198.9666666666669 0 6.35
  endloop
endfacet
facet normal 0 0 1
  outer loop
    vertex 149.2249999999999 12.7 6.35
    vertex 128.9843749999999 12.7 6.35
    vertex 139.276666666667 0 6.35
  endloop
endfacet
facet normal 0 0 1
  outer loop
    vertex 159.173333333333 -234.95 6.35
    vertex 149.2250000000001 -247.65 6.35
    vertex 169.4656250000001 -247.65 6.35
  endloop
endfacet
facet normal 0 0 1
  outer loop
    vertex 139.2766666666663 -234.95 6.35
    vertex 128.9843750000001 -247.65 6.35
    vertex 149.2250000000001 -247.65 6.35
  endloop
endfacet
facet normal -0 0 1
  outer loop
    vertex 149.2249999999999 12.7 6.35
    vertex 159.1733333333337 0 6.35
    vertex 169.4656249999999 12.7 6.35
  endloop
endfacet
facet normal 0 0 1
  outer loop
    vertex 0 -137.0541666666664 6.35
    vertex -12.7 -147.5153846153844 6.35
    vertex 0 -156.6333333333331 6.35
  endloop
endfacet
facet normal 0 0 1
  outer loop
    vertex 298.45 -97.89583333333357 6.35
    vertex 311.15 -87.43461538461551 6.35
    vertex 298.45 -78.3166666666669 6.35
  endloop
endfacet
facet normal 0 0 1
  outer loop
    vertex 298.45 -156.6333333333335 6.35
    vertex 311.15 -147.5153846153847 6.35
    vertex 298.45 -137.0541666666668 6.35
  endloop
endfacet
facet normal 0 0 1
  outer loop
    vertex 0 -78.31666666666652 6.35
    vertex -12.7 -87.43461538461528 6.35
    vertex 0 -97.89583333333317 6.35
  endloop
endfacet
facet normal -0 0 1
  outer loop
    vertex 298.45 -117.4750000000002 6.35
    vertex 311.15 -127.4884615384616 6.35
    vertex 311.15 -107.4615384615386 6.35
  endloop
endfacet
facet normal 0 0 1
  outer loop
    vertex 0 -117.4749999999998 6.35
    vertex -12.7 -107.4615384615383 6.35
    vertex -12.7 -127.4884615384614 6.35
  endloop
endfacet
facet normal -0 0 1
  outer loop
    vertex 159.173333333333 -234.95 6.35
    vertex 169.4656250000001 -247.65 6.35
    vertex 179.0699999999997 -234.95 6.35
  endloop
endfacet
facet normal 0 0 1
  outer loop
    vertex 139.276666666667 0 6.35
    vertex 128.9843749999999 12.7 6.35
    vertex 119.3800000000003 0 6.35
  endloop
endfacet
facet normal -0 0 1
  outer loop
    vertex 119.3799999999997 -234.95 6.35
    vertex 128.9843750000001 -247.65 6.35
    vertex 139.2766666666663 -234.95 6.35
  endloop
endfacet
facet normal 0 0 1
  outer loop
    vertex 169.4656249999999 12.7 6.35
    vertex 159.1733333333337 0 6.35
    vertex 179.0700000000002 0 6.35
  endloop
endfacet
facet normal -0 0 1
  outer loop
    vertex 139.2766666666663 -234.95 6.35
    vertex 149.2250000000001 -247.65 6.35
    vertex 159.173333333333 -234.95 6.35
  endloop
endfacet
facet normal 0 0 1
  outer loop
    vertex 139.276666666667 0 6.35
    vertex 159.1733333333337 0 6.35
    vertex 149.2249999999999 12.7 6.35
  endloop
endfacet
facet normal 0 0 1
  outer loop
    vertex 298.45 -117.4750000000002 6.35
    vertex 311.15 -107.4615384615386 6.35
    vertex 298.45 -97.89583333333357 6.35
  endloop
endfacet
facet normal 0 0 1
  outer loop
    vertex 0 -117.4749999999998 6.35
    vertex -12.7 -127.4884615384614 6.35
    vertex 0 -137.0541666666664 6.35
  endloop
endfacet
facet normal 0 0 1
  outer loop
    vertex 0 -97.89583333333317 6.35
    vertex -12.7 -107.4615384615383 6.35
    vertex 0 -117.4749999999998 6.35
  endloop
endfacet
facet normal 0 0 1
  outer loop
    vertex 298.45 -137.0541666666668 6.35
    vertex 311.15 -127.4884615384616 6.35
    vertex 298.45 -117.4750000000002 6.35
  endloop
endfacet
facet normal 0 -0 -1
  outer loop
    vertex 19.8966666666667 -234.95 0
    vertex 27.78124999999989 -247.65 0
    vertex 7.54062499999992 -247.65 0
  endloop
endfacet
facet normal -0 0 -1
  outer loop
    vertex 290.9093750000001 12.7 0
    vertex 278.5533333333333 0 0
    vertex 270.6687500000001 12.7 0
  endloop
endfacet
facet normal 0 0 -1
  outer loop
    vertex 270.6687499999999 -247.65 0
    vertex 278.5533333333333 -234.95 0
    vertex 290.909375 -247.65 0
  endloop
endfacet
facet normal -0 0 -1
  outer loop
    vertex 27.78125000000003 12.7 0
    vertex 19.89666666666669 0 0
    vertex 7.540625000000016 12.7 0
  endloop
endfacet
facet normal 0 0 -1
  outer loop
    vertex 311.15 -27.35384615384621 0
    vertex 298.45 -19.57916666666671 0
    vertex 311.15 -7.326923076923109 0
  endloop
endfacet
facet normal 0 0 -1
  outer loop
    vertex -12.7 -207.5961538461538 0
    vertex 0 -215.3708333333333 0
    vertex -12.7 -227.6230769230769 0
  endloop
endfacet
facet normal 0 0 -1
  outer loop
    vertex -12.7 -27.35384615384606 0
    vertex -12.7 -7.326923076923038 0
    vertex 0 -19.57916666666662 0
  endloop
endfacet
facet normal 0 0 -1
  outer loop
    vertex 311.15 -227.623076923077 0
    vertex 298.45 -215.3708333333334 0
    vertex 311.15 -207.5961538461539 0
  endloop
endfacet
facet normal 0 0 -1
  outer loop
    vertex 278.5533333333333 0 0
    vertex 290.9093750000001 12.7 0
    vertex 298.45 0 0
  endloop
endfacet
facet normal 0 0 -1
  outer loop
    vertex 0 -234.95 0
    vertex 19.8966666666667 -234.95 0
    vertex 7.54062499999992 -247.65 0
  endloop
endfacet
facet normal 0 0 -1
  outer loop
    vertex 278.5533333333333 -234.95 0
    vertex 298.45 -234.95 0
    vertex 290.909375 -247.65 0
  endloop
endfacet
facet normal 0 0 -1
  outer loop
    vertex 19.89666666666669 0 0
    vertex 0 0 0
    vertex 7.540625000000016 12.7 0
  endloop
endfacet
facet normal 0 0 -1
  outer loop
    vertex 298.45 -19.57916666666671 0
    vertex 298.45 0 0
    vertex 311.15 -7.326923076923109 0
  endloop
endfacet
facet normal 0 0 -1
  outer loop
    vertex -12.7 -7.326923076923038 0
    vertex 0 0 0
    vertex 0 -19.57916666666662 0
  endloop
endfacet
facet normal 0 -0 -1
  outer loop
    vertex 0 -215.3708333333333 0
    vertex 0 -234.95 0
    vertex -12.7 -227.6230769230769 0
  endloop
endfacet
facet normal 0 0 -1
  outer loop
    vertex 298.45 -234.95 0
    vertex 298.45 -215.3708333333334 0
    vertex 311.15 -227.623076923077 0
  endloop
endfacet
facet normal 0 0 -1
  outer loop
    vertex 27.78124999999989 -247.65 0
    vertex 39.79333333333341 -234.95 0
    vertex 48.02187499999985 -247.65 0
  endloop
endfacet
facet normal 0 0 -1
  outer loop
    vertex 250.4281250000001 12.7 0
    vertex 270.6687500000001 12.7 0
    vertex 258.6566666666666 0 0
  endloop
endfacet
facet normal -0 0 -1
  outer loop
    vertex 48.02187500000005 12.7 0
    vertex 39.79333333333338 0 0
    vertex 27.78125000000003 12.7 0
  endloop
endfacet
facet normal 0 0 -1
  outer loop
    vertex 250.4281249999999 -247.65 0
    vertex 258.6566666666666 -234.95 0
    vertex 270.6687499999999 -247.65 0
  endloop
endfacet
facet normal 0 0 -1
  outer loop
    vertex 298.45 -39.15833333333345 0
    vertex 311.15 -27.35384615384621 0
    vertex 311.15 -47.38076923076932 0
  endloop
endfacet
facet normal 0 0 -1
  outer loop
    vertex -12.7 -187.5692307692307 0
    vertex 0 -195.7916666666665 0
    vertex -12.7 -207.5961538461538 0
  endloop
endfacet
facet normal 0 0 -1
  outer loop
    vertex -12.7 -47.38076923076906 0
    vertex -12.7 -27.35384615384606 0
    vertex 0 -39.15833333333327 0
  endloop
endfacet
facet normal 0 0 -1
  outer loop
    vertex 311.15 -207.5961538461539 0
    vertex 298.45 -195.7916666666667 0
    vertex 311.15 -187.5692307692309 0
  endloop
endfacet
facet normal 0 -0 -1
  outer loop
    vertex 270.6687500000001 12.7 0
    vertex 278.5533333333333 0 0
    vertex 258.6566666666666 0 0
  endloop
endfacet
facet normal 0 0 -1
  outer loop
    vertex 19.8966666666667 -234.95 0
    vertex 39.79333333333341 -234.95 0
    vertex 27.78124999999989 -247.65 0
  endloop
endfacet
facet normal 0 0 -1
  outer loop
    vertex 39.79333333333338 0 0
    vertex 19.89666666666669 0 0
    vertex 27.78125000000003 12.7 0
  endloop
endfacet
facet normal 0 0 -1
  outer loop
    vertex 258.6566666666666 -234.95 0
    vertex 278.5533333333333 -234.95 0
    vertex 270.6687499999999 -247.65 0
  endloop
endfacet
facet normal 0 0 -1
  outer loop
    vertex 230.1875000000002 12.7 0
    vertex 250.4281250000001 12.7 0
    vertex 238.76 0 0
  endloop
endfacet
facet normal 0 -0 -1
  outer loop
    vertex 59.69000000000003 -234.95 0
    vertex 68.26249999999982 -247.65 0
    vertex 48.02187499999985 -247.65 0
  endloop
endfacet
facet normal -0 0 -1
  outer loop
    vertex 68.26250000000007 12.7 0
    vertex 59.6900000000001 0 0
    vertex 48.02187500000005 12.7 0
  endloop
endfacet
facet normal 0 -0 -1
  outer loop
    vertex 238.7599999999999 -234.95 0
    vertex 250.4281249999999 -247.65 0
    vertex 230.1874999999999 -247.65 0
  endloop
endfacet
facet normal 0 0 -1
  outer loop
    vertex 298.45 -39.15833333333345 0
    vertex 298.45 -19.57916666666671 0
    vertex 311.15 -27.35384615384621 0
  endloop
endfacet
facet normal 0 0 -1
  outer loop
    vertex 298.45 -215.3708333333334 0
    vertex 298.45 -195.7916666666667 0
    vertex 311.15 -207.5961538461539 0
  endloop
endfacet
facet normal 0 0 -1
  outer loop
    vertex -12.7 -27.35384615384606 0
    vertex 0 -19.57916666666662 0
    vertex 0 -39.15833333333327 0
  endloop
endfacet
facet normal 0 -0 -1
  outer loop
    vertex 0 -195.7916666666665 0
    vertex 0 -215.3708333333333 0
    vertex -12.7 -207.5961538461538 0
  endloop
endfacet
facet normal 0 0 -1
  outer loop
    vertex 238.76 0 0
    vertex 250.4281250000001 12.7 0
    vertex 258.6566666666666 0 0
  endloop
endfacet
facet normal 0 0 -1
  outer loop
    vertex 39.79333333333341 -234.95 0
    vertex 59.69000000000003 -234.95 0
    vertex 48.02187499999985 -247.65 0
  endloop
endfacet
facet normal 0 0 -1
  outer loop
    vertex 238.7599999999999 -234.95 0
    vertex 258.6566666666666 -234.95 0
    vertex 250.4281249999999 -247.65 0
  endloop
endfacet
facet normal 0 0 -1
  outer loop
    vertex 59.6900000000001 0 0
    vertex 39.79333333333338 0 0
    vertex 48.02187500000005 12.7 0
  endloop
endfacet
facet normal 0 0 -1
  outer loop
    vertex -12.7 -167.5423076923076 0
    vertex 0 -176.2124999999998 0
    vertex -12.7 -187.5692307692307 0
  endloop
endfacet
facet normal 0 0 -1
  outer loop
    vertex 311.15 -67.4076923076924 0
    vertex 298.45 -58.73750000000017 0
    vertex 311.15 -47.38076923076932 0
  endloop
endfacet
facet normal -0 0 -1
  outer loop
    vertex 0 -58.7374999999999 0
    vertex -12.7 -67.40769230769209 0
    vertex -12.7 -47.38076923076906 0
  endloop
endfacet
facet normal 0 0 -1
  outer loop
    vertex 311.15 -187.5692307692309 0
    vertex 298.45 -176.2125000000001 0
    vertex 311.15 -167.5423076923079 0
  endloop
endfacet
facet normal 0 0 -1
  outer loop
    vertex 68.26249999999982 -247.65 0
    vertex 79.58666666666656 -234.95 0
    vertex 88.50312499999981 -247.65 0
  endloop
endfacet
facet normal -0 0 -1
  outer loop
    vertex 230.1875000000002 12.7 0
    vertex 218.8633333333334 0 0
    vertex 209.9468750000002 12.7 0
  endloop
endfacet
facet normal -0 0 -1
  outer loop
    vertex 88.50312500000008 12.7 0
    vertex 79.5866666666668 0 0
    vertex 68.26250000000007 12.7 0
  endloop
endfacet
facet normal 0 0 -1
  outer loop
    vertex 209.9468749999999 -247.65 0
    vertex 218.8633333333332 -234.95 0
    vertex 230.1874999999999 -247.65 0
  endloop
endfacet
facet normal 0 -0 -1
  outer loop
    vertex 0 -176.2124999999998 0
    vertex 0 -195.7916666666665 0
    vertex -12.7 -187.5692307692307 0
  endloop
endfacet
facet normal 0 0 -1
  outer loop
    vertex 298.45 -58.73750000000017 0
    vertex 298.45 -39.15833333333345 0
    vertex 311.15 -47.38076923076932 0
  endloop
endfacet
facet normal 0 0 -1
  outer loop
    vertex 0 -58.7374999999999 0
    vertex -12.7 -47.38076923076906 0
    vertex 0 -39.15833333333327 0
  endloop
endfacet
facet normal 0 0 -1
  outer loop
    vertex 298.45 -195.7916666666667 0
    vertex 298.45 -176.2125000000001 0
    vertex 311.15 -187.5692307692309 0
  endloop
endfacet
facet normal 0 0 -1
  outer loop
    vertex 79.5866666666668 0 0
    vertex 59.6900000000001 0 0
    vertex 68.26250000000007 12.7 0
  endloop
endfacet
facet normal 0 0 -1
  outer loop
    vertex 218.8633333333332 -234.95 0
    vertex 238.7599999999999 -234.95 0
    vertex 230.1874999999999 -247.65 0
  endloop
endfacet
facet normal 0 0 -1
  outer loop
    vertex 59.69000000000003 -234.95 0
    vertex 79.58666666666656 -234.95 0
    vertex 68.26249999999982 -247.65 0
  endloop
endfacet
facet normal 0 -0 -1
  outer loop
    vertex 230.1875000000002 12.7 0
    vertex 238.76 0 0
    vertex 218.8633333333334 0 0
  endloop
endfacet
facet normal 0 0 -1
  outer loop
    vertex 189.7062499999998 -247.65 0
    vertex 198.9666666666665 -234.95 0
    vertex 209.9468749999999 -247.65 0
  endloop
endfacet
facet normal -0 0 -1
  outer loop
    vertex 108.7437500000001 12.7 0
    vertex 99.48333333333353 0 0
    vertex 88.50312500000008 12.7 0
  endloop
endfacet
facet normal 0 0 -1
  outer loop
    vertex 198.9666666666669 0 0
    vertex 189.7062500000002 12.7 0
    vertex 209.9468750000002 12.7 0
  endloop
endfacet
facet normal 0 0 -1
  outer loop
    vertex 88.50312499999981 -247.65 0
    vertex 99.48333333333312 -234.95 0
    vertex 108.7437499999998 -247.65 0
  endloop
endfacet
facet normal 0 0 -1
  outer loop
    vertex -12.7 -147.5153846153844 0
    vertex 0 -156.6333333333331 0
    vertex -12.7 -167.5423076923076 0
  endloop
endfacet
facet normal 0 0 -1
  outer loop
    vertex 311.15 -87.43461538461555 0
    vertex 298.45 -78.3166666666669 0
    vertex 311.15 -67.4076923076924 0
  endloop
endfacet
facet normal 0 0 -1
  outer loop
    vertex -12.7 -87.43461538461509 0
    vertex -12.7 -67.40769230769209 0
    vertex 0 -78.31666666666652 0
  endloop
endfacet
facet normal 0 0 -1
  outer loop
    vertex 311.15 -167.5423076923079 0
    vertex 298.45 -156.6333333333335 0
    vertex 311.15 -147.5153846153849 0
  endloop
endfacet
facet normal 0 -0 -1
  outer loop
    vertex 298.45 -234.95 0
    vertex 311.15 -247.65 0
    vertex 290.909375 -247.65 0
  endloop
endfacet
facet normal -0 0 -1
  outer loop
    vertex 7.540625000000016 12.7 0
    vertex 0 0 0
    vertex -12.7 12.7 0
  endloop
endfacet
facet normal 0 0 -1
  outer loop
    vertex 290.9093750000001 12.7 0
    vertex 311.15 12.7 0
    vertex 298.45 0 0
  endloop
endfacet
facet normal 0 0 -1
  outer loop
    vertex -12.7 -247.65 0
    vertex 0 -234.95 0
    vertex 7.54062499999992 -247.65 0
  endloop
endfacet
facet normal 0 0 -1
  outer loop
    vertex 99.48333333333353 0 0
    vertex 79.5866666666668 0 0
    vertex 88.50312500000008 12.7 0
  endloop
endfacet
facet normal 0 0 -1
  outer loop
    vertex 198.9666666666665 -234.95 0
    vertex 218.8633333333332 -234.95 0
    vertex 209.9468749999999 -247.65 0
  endloop
endfacet
facet normal 0 0 -1
  outer loop
    vertex 218.8633333333334 0 0
    vertex 198.9666666666669 0 0
    vertex 209.9468750000002 12.7 0
  endloop
endfacet
facet normal 0 0 -1
  outer loop
    vertex 79.58666666666656 -234.95 0
    vertex 99.48333333333312 -234.95 0
    vertex 88.50312499999981 -247.65 0
  endloop
endfacet
facet normal 0 0 -1
  outer loop
    vertex 298.45 -234.95 0
    vertex 311.15 -227.623076923077 0
    vertex 311.15 -247.65 0
  endloop
endfacet
facet normal 0 0 -1
  outer loop
    vertex 298.45 0 0
    vertex 311.15 12.7 0
    vertex 311.15 -7.326923076923109 0
  endloop
endfacet
facet normal -0 0 -1
  outer loop
    vertex 0 -234.95 0
    vertex -12.7 -247.65 0
    vertex -12.7 -227.6230769230769 0
  endloop
endfacet
facet normal -0 0 -1
  outer loop
    vertex 0 0 0
    vertex -12.7 -7.326923076923038 0
    vertex -12.7 12.7 0
  endloop
endfacet
facet normal 0 0 -1
  outer loop
    vertex 298.45 -78.3166666666669 0
    vertex 298.45 -58.73750000000017 0
    vertex 311.15 -67.4076923076924 0
  endloop
endfacet
facet normal 0 -0 -1
  outer loop
    vertex 0 -156.6333333333331 0
    vertex 0 -176.2124999999998 0
    vertex -12.7 -167.5423076923076 0
  endloop
endfacet
facet normal 0 0 -1
  outer loop
    vertex -12.7 -67.40769230769209 0
    vertex 0 -58.7374999999999 0
    vertex 0 -78.31666666666652 0
  endloop
endfacet
facet normal 0 0 -1
  outer loop
    vertex 298.45 -176.2125000000001 0
    vertex 298.45 -156.6333333333335 0
    vertex 311.15 -167.5423076923079 0
  endloop
endfacet
facet normal 0 0 -1
  outer loop
    vertex 108.7437500000001 12.7 0
    vertex 128.9843750000002 12.7 0
    vertex 119.3800000000003 0 0
  endloop
endfacet
facet normal 0 0 -1
  outer loop
    vertex 169.4656249999998 -247.65 0
    vertex 179.0699999999997 -234.95 0
    vertex 189.7062499999998 -247.65 0
  endloop
endfacet
facet normal 0 0 -1
  outer loop
    vertex 169.4656250000002 12.7 0
    vertex 189.7062500000002 12.7 0
    vertex 179.0700000000002 0 0
  endloop
endfacet
facet normal 0 0 -1
  outer loop
    vertex 108.7437499999998 -247.65 0
    vertex 119.3799999999997 -234.95 0
    vertex 128.9843749999998 -247.65 0
  endloop
endfacet
facet normal -0 0 -1
  outer loop
    vertex 0 -97.89583333333317 0
    vertex -12.7 -107.4615384615382 0
    vertex -12.7 -87.43461538461509 0
  endloop
endfacet
facet normal 0 0 -1
  outer loop
    vertex 311.15 -107.4615384615387 0
    vertex 298.45 -97.89583333333357 0
    vertex 311.15 -87.43461538461555 0
  endloop
endfacet
facet normal 0 0 -1
  outer loop
    vertex -12.7 -127.4884615384613 0
    vertex 0 -137.0541666666664 0
    vertex -12.7 -147.5153846153844 0
  endloop
endfacet
facet normal 0 0 -1
  outer loop
    vertex 298.45 -137.0541666666668 0
    vertex 311.15 -127.4884615384618 0
    vertex 311.15 -147.5153846153849 0
  endloop
endfacet
facet normal 0 0 -1
  outer loop
    vertex 99.48333333333353 0 0
    vertex 108.7437500000001 12.7 0
    vertex 119.3800000000003 0 0
  endloop
endfacet
facet normal 0 0 -1
  outer loop
    vertex 179.0699999999997 -234.95 0
    vertex 198.9666666666665 -234.95 0
    vertex 189.7062499999998 -247.65 0
  endloop
endfacet
facet normal 0 -0 -1
  outer loop
    vertex 189.7062500000002 12.7 0
    vertex 198.9666666666669 0 0
    vertex 179.0700000000002 0 0
  endloop
endfacet
facet normal 0 0 -1
  outer loop
    vertex 99.48333333333312 -234.95 0
    vertex 119.3799999999997 -234.95 0
    vertex 108.7437499999998 -247.65 0
  endloop
endfacet
facet normal 0 0 -1
  outer loop
    vertex 149.2249999999998 -247.65 0
    vertex 159.173333333333 -234.95 0
    vertex 169.4656249999998 -247.65 0
  endloop
endfacet
facet normal 0 0 -1
  outer loop
    vertex 139.276666666667 0 0
    vertex 128.9843750000002 12.7 0
    vertex 149.2250000000002 12.7 0
  endloop
endfacet
facet normal -0 0 -1
  outer loop
    vertex 169.4656250000002 12.7 0
    vertex 159.1733333333337 0 0
    vertex 149.2250000000002 12.7 0
  endloop
endfacet
facet normal 0 -0 -1
  outer loop
    vertex 139.2766666666663 -234.95 0
    vertex 149.2249999999998 -247.65 0
    vertex 128.9843749999998 -247.65 0
  endloop
endfacet
facet normal 0 0 -1
  outer loop
    vertex 298.45 -156.6333333333335 0
    vertex 298.45 -137.0541666666668 0
    vertex 311.15 -147.5153846153849 0
  endloop
endfacet
facet normal 0 0 -1
  outer loop
    vertex 0 -97.89583333333317 0
    vertex -12.7 -87.43461538461509 0
    vertex 0 -78.31666666666652 0
  endloop
endfacet
facet normal 0 -0 -1
  outer loop
    vertex 0 -137.0541666666664 0
    vertex 0 -156.6333333333331 0
    vertex -12.7 -147.5153846153844 0
  endloop
endfacet
facet normal 0 0 -1
  outer loop
    vertex 298.45 -97.89583333333357 0
    vertex 298.45 -78.3166666666669 0
    vertex 311.15 -87.43461538461555 0
  endloop
endfacet
facet normal 0 0 -1
  outer loop
    vertex -12.7 -107.4615384615382 0
    vertex 0 -117.4749999999998 0
    vertex -12.7 -127.4884615384613 0
  endloop
endfacet
facet normal 0 0 -1
  outer loop
    vertex 311.15 -127.4884615384618 0
    vertex 298.45 -117.4750000000002 0
    vertex 311.15 -107.4615384615387 0
  endloop
endfacet
facet normal 0 0 -1
  outer loop
    vertex 159.173333333333 -234.95 0
    vertex 179.0699999999997 -234.95 0
    vertex 169.4656249999998 -247.65 0
  endloop
endfacet
facet normal 0 -0 -1
  outer loop
    vertex 128.9843750000002 12.7 0
    vertex 139.276666666667 0 0
    vertex 119.3800000000003 0 0
  endloop
endfacet
facet normal 0 -0 -1
  outer loop
    vertex 169.4656250000002 12.7 0
    vertex 179.0700000000002 0 0
    vertex 159.1733333333337 0 0
  endloop
endfacet
facet normal 0 0 -1
  outer loop
    vertex 119.3799999999997 -234.95 0
    vertex 139.2766666666663 -234.95 0
    vertex 128.9843749999998 -247.65 0
  endloop
endfacet
facet normal 0 0 -1
  outer loop
    vertex 139.2766666666663 -234.95 0
    vertex 159.173333333333 -234.95 0
    vertex 149.2249999999998 -247.65 0
  endloop
endfacet
facet normal 0 0 -1
  outer loop
    vertex 159.1733333333337 0 0
    vertex 139.276666666667 0 0
    vertex 149.2250000000002 12.7 0
  endloop
endfacet
facet normal 0 0 -1
  outer loop
    vertex 298.45 -137.0541666666668 0
    vertex 298.45 -117.4750000000002 0
    vertex 311.15 -127.4884615384618 0
  endloop
endfacet
facet normal 0 -0 -1
  outer loop
    vertex 0 -97.89583333333317 0
    vertex 0 -117.4749999999998 0
    vertex -12.7 -107.4615384615382 0
  endloop
endfacet
facet normal 0 0 -1
  outer loop
    vertex 298.45 -117.4750000000002 0
    vertex 298.45 -97.89583333333357 0
    vertex 311.15 -107.4615384615387 0
  endloop
endfacet
facet normal 0 -0 -1
  outer loop
    vertex 0 -117.4749999999998 0
    vertex 0 -137.0541666666664 0
    vertex -12.7 -127.4884615384613 0
  endloop
endfacet
endsolid Created by Gmsh
